<?xml version="1.0" encoding="UTF-8"?>
<!DOCTYPE svg PUBLIC "-//W3C//DTD SVG 1.1//EN" "http://www.w3.org/Graphics/SVG/1.1/DTD/svg11.dtd">
<svg xmlns="http://www.w3.org/2000/svg" version="1.1" width="264px" height="247px" style="shape-rendering:geometricPrecision; text-rendering:geometricPrecision; image-rendering:optimizeQuality; fill-rule:evenodd; clip-rule:evenodd" xmlns:xlink="http://www.w3.org/1999/xlink">
<g><path style="opacity:0.973" fill="#040301" d="M 15.5,4.5 C 61.5,4.5 107.5,4.5 153.5,4.5C 153.471,19.8065 153.471,34.8065 153.5,49.5C 138.167,50.1667 122.833,50.8333 107.5,51.5C 106.29,51.9321 105.29,52.5987 104.5,53.5C 103.89,54.391 103.557,55.391 103.5,56.5C 102.596,57.209 102.263,58.209 102.5,59.5C 101.5,58.8333 100.5,58.1667 99.5,57.5C 97.8333,56.5 96.5,55.1667 95.5,53.5C 93.2513,52.4423 91.0846,51.1089 89,49.5C 86.8801,50.4589 84.7135,50.6256 82.5,50C 83.767,48.2041 83.767,46.3707 82.5,44.5C 83.0253,43.8076 83.6919,43.3076 84.5,43C 83.1118,42.1107 83.2785,41.6107 85,41.5C 87.8004,43.0476 87.967,44.7143 85.5,46.5C 88.8715,46.9235 91.7048,48.2568 94,50.5C 95.7932,48.4284 97.9599,48.0951 100.5,49.5C 103.653,48.4214 106.653,47.0881 109.5,45.5C 108.5,44.6667 107.5,43.8333 106.5,43C 107.576,41.2739 107.743,39.4406 107,37.5C 104.201,39.6233 102.201,42.2899 101,45.5C 100.667,45.1667 100.333,44.8333 100,44.5C 99.1627,46.0074 97.9961,46.5074 96.5,46C 97.9092,42.0876 100.576,39.2543 104.5,37.5C 103.309,34.0219 104.309,31.1885 107.5,29C 105.117,29.4456 102.95,30.6123 101,32.5C 100.086,31.3463 99.2529,31.513 98.5,33C 99.6539,37.0256 97.9872,38.8589 93.5,38.5C 93.741,35.001 92.9076,34.6677 91,37.5C 90.3164,35.5211 90.8164,33.8544 92.5,32.5C 90.4833,31.7809 88.8166,30.6143 87.5,29C 88.0223,28.0497 88.689,27.2164 89.5,26.5C 88.4981,24.4899 87.4981,22.4899 86.5,20.5C 83.3599,20.054 80.6932,18.7206 78.5,16.5C 72.9364,18.3769 71.1031,22.0436 73,27.5C 69.9857,29.7 67.819,32.5334 66.5,36C 68.5,36.6667 70.5,36.6667 72.5,36C 75.4026,33.0163 78.4026,32.8496 81.5,35.5C 82.6869,34.1062 83.3535,34.2729 83.5,36C 81.198,37.8244 78.8647,39.6578 76.5,41.5C 75.7492,40.624 75.2492,39.624 75,38.5C 74.1729,39.6621 73.3396,40.8288 72.5,42C 73.1667,43.3333 73.8333,44.6667 74.5,46C 71.1565,47.8576 69.8232,50.6909 70.5,54.5C 67.9179,54.0254 65.9179,54.6921 64.5,56.5C 64.1667,57.1667 63.8333,57.8333 63.5,58.5C 62.6091,57.7387 61.9424,56.7387 61.5,55.5C 58.9515,54.7158 56.6181,53.5492 54.5,52C 56.9069,50.7328 59.2402,50.2328 61.5,50.5C 59.9547,49.5481 58.288,49.2148 56.5,49.5C 56.887,45.9453 57.887,42.6119 59.5,39.5C 58.8016,38.1374 58.8016,36.9707 59.5,36C 56.634,34.5432 53.634,34.2099 50.5,35C 48.2878,37.0425 46.2878,39.2092 44.5,41.5C 46.0563,44.8006 48.0563,45.1339 50.5,42.5C 51.1997,45.0149 52.5331,45.6816 54.5,44.5C 54.8333,45 55.1667,45.5 55.5,46C 55.1081,47.0105 54.4415,47.5105 53.5,47.5C 54.5896,48.6086 54.5896,49.6086 53.5,50.5C 49.0924,48.4505 45.0924,45.7838 41.5,42.5C 39.9547,41.5481 38.288,41.2148 36.5,41.5C 37.3367,37.4618 37.67,33.4618 37.5,29.5C 35.1493,28.9882 33.1493,27.9882 31.5,26.5C 32.6927,24.6163 34.3594,24.1163 36.5,25C 37.6898,27.1164 39.0231,29.1164 40.5,31C 39.6634,32.0113 39.33,33.1779 39.5,34.5C 40.8221,34.33 41.9887,34.6634 43,35.5C 44.0674,34.8095 45.2341,34.3095 46.5,34C 47.0585,33.2753 47.3918,32.4419 47.5,31.5C 46.3831,28.9301 45.5497,26.2634 45,23.5C 43.9887,24.3366 42.8221,24.67 41.5,24.5C 41.67,23.1779 41.3366,22.0113 40.5,21C 37.8192,20.5423 35.3192,19.709 33,18.5C 29.9373,19.8913 27.7706,18.8913 26.5,15.5C 24.259,16.6399 22.0923,16.6399 20,15.5C 19.6411,12.4557 18.9745,12.1224 18,14.5C 16.2602,13.2842 15.2602,11.6175 15,9.5C 13.6667,10.8333 12.3333,12.1667 11,13.5C 9.81181,12.4366 9.31181,11.1033 9.5,9.5C 13.0399,9.62346 15.0399,7.95679 15.5,4.5 Z"/></g>
<g><path style="opacity:1" fill="#0f0905" d="M 95.5,53.5 C 91.6094,54.0599 87.776,53.3932 84,51.5C 83.5,51.8333 83,52.1667 82.5,52.5C 84.4281,54.5882 86.7615,56.0882 89.5,57C 87.0829,58.1437 86.4162,59.8103 87.5,62C 86.8333,62.3333 86.1667,62.6667 85.5,63C 86.5,64 87.5,65 88.5,66C 90.3913,65.2367 92.3913,64.4033 94.5,63.5C 94.3287,66.7973 94.9954,67.1306 96.5,64.5C 97.5237,65.8532 98.857,66.5198 100.5,66.5C 100.5,65.1667 100.5,63.8333 100.5,62.5C 99.5,62.5 98.5,62.5 97.5,62.5C 97.3653,60.4458 98.032,58.7791 99.5,57.5C 100.5,58.1667 101.5,58.8333 102.5,59.5C 102.5,66.1667 102.5,72.8333 102.5,79.5C 101.649,81.7097 100.316,83.7097 98.5,85.5C 97.2528,83.9936 97.2528,82.4936 98.5,81C 96.5,80.6667 94.5,80.3333 92.5,80C 91.7699,77.846 91.1032,75.6794 90.5,73.5C 89.7095,72.5987 88.7095,71.9321 87.5,71.5C 87.4606,70.4168 87.1272,69.4168 86.5,68.5C 84.8068,67.7717 83.3068,66.7717 82,65.5C 79.5385,62.3639 77.0385,59.1973 74.5,56C 71.0764,55.2534 67.7431,55.42 64.5,56.5C 65.9179,54.6921 67.9179,54.0254 70.5,54.5C 69.8232,50.6909 71.1565,47.8576 74.5,46C 73.8333,44.6667 73.1667,43.3333 72.5,42C 73.3396,40.8288 74.1729,39.6621 75,38.5C 75.2492,39.624 75.7492,40.624 76.5,41.5C 78.8647,39.6578 81.198,37.8244 83.5,36C 83.3535,34.2729 82.6869,34.1062 81.5,35.5C 78.4026,32.8496 75.4026,33.0163 72.5,36C 70.5,36.6667 68.5,36.6667 66.5,36C 67.819,32.5334 69.9857,29.7 73,27.5C 71.1031,22.0436 72.9364,18.3769 78.5,16.5C 80.6932,18.7206 83.3599,20.054 86.5,20.5C 87.4981,22.4899 88.4981,24.4899 89.5,26.5C 88.689,27.2164 88.0223,28.0497 87.5,29C 88.8166,30.6143 90.4833,31.7809 92.5,32.5C 90.8164,33.8544 90.3164,35.5211 91,37.5C 92.9076,34.6677 93.741,35.001 93.5,38.5C 97.9872,38.8589 99.6539,37.0256 98.5,33C 99.2529,31.513 100.086,31.3463 101,32.5C 102.95,30.6123 105.117,29.4456 107.5,29C 104.309,31.1885 103.309,34.0219 104.5,37.5C 100.576,39.2543 97.9092,42.0876 96.5,46C 97.9961,46.5074 99.1627,46.0074 100,44.5C 100.333,44.8333 100.667,45.1667 101,45.5C 102.201,42.2899 104.201,39.6233 107,37.5C 107.743,39.4406 107.576,41.2739 106.5,43C 107.5,43.8333 108.5,44.6667 109.5,45.5C 106.653,47.0881 103.653,48.4214 100.5,49.5C 97.9599,48.0951 95.7932,48.4284 94,50.5C 91.7048,48.2568 88.8715,46.9235 85.5,46.5C 87.967,44.7143 87.8004,43.0476 85,41.5C 83.2785,41.6107 83.1118,42.1107 84.5,43C 83.6919,43.3076 83.0253,43.8076 82.5,44.5C 83.767,46.3707 83.767,48.2041 82.5,50C 84.7135,50.6256 86.8801,50.4589 89,49.5C 91.0846,51.1089 93.2513,52.4423 95.5,53.5 Z"/></g>
<g><path style="opacity:1" fill="#211e1b" d="M 5.5,16.5 C 6.4938,25.9856 6.82713,35.6522 6.5,45.5C 7.93047,45.4208 9.26381,45.7542 10.5,46.5C 12.358,50.0851 12.358,53.4184 10.5,56.5C 12.4203,59.6721 12.2537,63.0054 10,66.5C 8.11034,61.0254 7.11034,55.0254 7,48.5C 6.50017,58.828 6.33351,69.1613 6.5,79.5C 8.94185,79.8808 9.60851,79.2141 8.5,77.5C 11.8616,77.1496 14.6949,75.8163 17,73.5C 16.8922,76.637 18.0589,78.9704 20.5,80.5C 19.9569,80.56 19.6236,80.8933 19.5,81.5C 21.2882,82.2826 22.2882,83.6159 22.5,85.5C 21.4693,86.355 20.3026,87.0217 19,87.5C 18.5909,85.3989 17.2575,83.3989 15,81.5C 12.4341,83.4266 11.9341,85.7599 13.5,88.5C 13.5,88.8333 13.5,89.1667 13.5,89.5C 11.5,88.8333 10.1667,87.5 9.5,85.5C 8.27451,84.063 7.27451,82.3964 6.5,80.5C 5.50033,59.1771 5.16699,37.8437 5.5,16.5 Z"/></g>
<g><path style="opacity:0.937" fill="#434345" d="M 153.5,49.5 C 153.833,49.5 154.167,49.5 154.5,49.5C 169.661,50.3314 184.995,50.8314 200.5,51C 187.963,51.1187 175.63,51.952 163.5,53.5C 145.497,53.6666 127.497,53.4999 109.5,53C 115.833,52.6667 122.167,52.3333 128.5,52C 121.508,51.5004 114.508,51.3337 107.5,51.5C 122.833,50.8333 138.167,50.1667 153.5,49.5 Z"/></g>
<g><path style="opacity:1" fill="#383837" d="M 5.5,16.5 C 5.16699,37.8437 5.50033,59.1771 6.5,80.5C 7.27451,82.3964 8.27451,84.063 9.5,85.5C 8.5041,85.4142 7.67076,85.7476 7,86.5C 6.50649,84.8659 6.33982,83.1992 6.5,81.5C 5.5,81.5 4.5,81.5 3.5,81.5C 2.82946,56.5014 2.66279,31.5014 3,6.5C 4.07298,5.72028 5.23965,5.88695 6.5,7C 5.54948,10.0567 5.21614,13.2234 5.5,16.5 Z"/></g>
<g><path style="opacity:1" fill="#55565a" d="M 107.5,51.5 C 114.508,51.3337 121.508,51.5004 128.5,52C 122.167,52.3333 115.833,52.6667 109.5,53C 127.497,53.4999 145.497,53.6666 163.5,53.5C 165.167,53.5 166.833,53.5 168.5,53.5C 167.081,54.4511 165.415,54.7845 163.5,54.5C 161.741,56.6326 161.074,58.966 161.5,61.5C 160.167,62.5 158.833,63.5 157.5,64.5C 160.107,65.3184 162.774,65.8184 165.5,66C 148.662,66.1685 131.995,66.6685 115.5,67.5C 114.833,67.5 114.5,67.8333 114.5,68.5C 113.67,77.6577 113.17,86.991 113,96.5C 112.275,94.842 111.108,94.342 109.5,95C 108.414,97.3387 107.58,99.8387 107,102.5C 106.667,93.5 106.333,84.5 106,75.5C 105.825,80.0195 105.325,84.3528 104.5,88.5C 104.576,76.6106 104.576,64.9439 104.5,53.5C 105.29,52.5987 106.29,51.9321 107.5,51.5 Z"/></g>
<g><path style="opacity:1" fill="#4b4a4f" d="M 168.5,53.5 C 175.508,53.3337 182.508,53.5004 189.5,54C 188.095,55.2692 186.429,55.7692 184.5,55.5C 184.297,57.3904 184.963,58.8904 186.5,60C 185.87,61.892 184.87,63.5587 183.5,65C 184.167,65.3333 184.833,65.6667 185.5,66C 180.5,66.3333 175.5,66.6667 170.5,67C 181.008,67.1697 191.341,67.6697 201.5,68.5C 172.833,68.5 144.167,68.5 115.5,68.5C 115.5,68.1667 115.5,67.8333 115.5,67.5C 131.995,66.6685 148.662,66.1685 165.5,66C 162.774,65.8184 160.107,65.3184 157.5,64.5C 158.833,63.5 160.167,62.5 161.5,61.5C 161.074,58.966 161.741,56.6326 163.5,54.5C 165.415,54.7845 167.081,54.4511 168.5,53.5 Z"/></g>
<g><path style="opacity:1" fill="#343436" d="M 154.5,49.5 C 172.503,49.3334 190.503,49.5001 208.5,50C 210.066,50.6082 211.4,51.4415 212.5,52.5C 211.244,52.4614 210.244,52.9614 209.5,54C 210.622,57.4085 210.789,60.9085 210,64.5C 209.667,63.1667 209.333,61.8333 209,60.5C 208.5,61.6667 207.667,62.5 206.5,63C 207.308,63.3076 207.975,63.8076 208.5,64.5C 207.5,65.3333 206.5,66.1667 205.5,67C 206.517,68.0495 206.684,69.2161 206,70.5C 205.184,69.1772 204.017,68.5106 202.5,68.5C 202.167,68.5 201.833,68.5 201.5,68.5C 191.341,67.6697 181.008,67.1697 170.5,67C 175.5,66.6667 180.5,66.3333 185.5,66C 184.833,65.6667 184.167,65.3333 183.5,65C 184.87,63.5587 185.87,61.892 186.5,60C 184.963,58.8904 184.297,57.3904 184.5,55.5C 186.429,55.7692 188.095,55.2692 189.5,54C 182.508,53.5004 175.508,53.3337 168.5,53.5C 166.833,53.5 165.167,53.5 163.5,53.5C 175.63,51.952 187.963,51.1187 200.5,51C 184.995,50.8314 169.661,50.3314 154.5,49.5 Z"/></g>
<g><path style="opacity:1" fill="#2d130f" d="M 95.5,53.5 C 96.5,55.1667 97.8333,56.5 99.5,57.5C 98.032,58.7791 97.3653,60.4458 97.5,62.5C 98.5,62.5 99.5,62.5 100.5,62.5C 100.5,63.8333 100.5,65.1667 100.5,66.5C 98.857,66.5198 97.5237,65.8532 96.5,64.5C 94.9954,67.1306 94.3287,66.7973 94.5,63.5C 92.3913,64.4033 90.3913,65.2367 88.5,66C 87.5,65 86.5,64 85.5,63C 86.1667,62.6667 86.8333,62.3333 87.5,62C 86.4162,59.8103 87.0829,58.1437 89.5,57C 86.7615,56.0882 84.4281,54.5882 82.5,52.5C 83,52.1667 83.5,51.8333 84,51.5C 87.776,53.3932 91.6094,54.0599 95.5,53.5 Z"/></g>
<g><path style="opacity:1" fill="#3d2b24" d="M 69.5,69.5 C 69.44,68.9569 69.1067,68.6236 68.5,68.5C 67.5,69.8333 66.5,71.1667 65.5,72.5C 65.277,71.0333 64.9437,69.5333 64.5,68C 61.402,66.9327 59.402,67.9327 58.5,71C 59.9691,73.3072 59.6357,75.1406 57.5,76.5C 56.7492,75.624 56.2492,74.624 56,73.5C 54.3005,74.4061 52.4672,74.7394 50.5,74.5C 51.6085,73.71 52.9419,73.21 54.5,73C 53.7562,71.9614 52.7562,71.4614 51.5,71.5C 54.288,70.3575 56.6213,68.5241 58.5,66C 60.74,65.023 63.0733,64.523 65.5,64.5C 65.5,63.5 65.5,62.5 65.5,61.5C 66.2485,60.469 66.9152,59.3024 67.5,58C 69.8333,57.3333 72.1667,57.3333 74.5,58C 75.1078,60.502 76.4411,62.502 78.5,64C 76.4659,66.5346 74.2992,69.0346 72,71.5C 71.5831,70.244 70.7498,69.5774 69.5,69.5 Z"/></g>
<g><path style="opacity:1" fill="#323234" d="M 212.5,52.5 C 213.222,52.9175 213.722,53.5842 214,54.5C 214.5,89.1651 214.667,123.832 214.5,158.5C 213.672,152.013 213.172,145.346 213,138.5C 212.178,140.788 211.511,143.122 211,145.5C 210.667,140.167 210.333,134.833 210,129.5C 209.541,132.783 208.041,135.449 205.5,137.5C 204.893,142.388 203.893,147.054 202.5,151.5C 202.5,123.833 202.5,96.1667 202.5,68.5C 204.017,68.5106 205.184,69.1772 206,70.5C 206.684,69.2161 206.517,68.0495 205.5,67C 206.5,66.1667 207.5,65.3333 208.5,64.5C 207.975,63.8076 207.308,63.3076 206.5,63C 207.667,62.5 208.5,61.6667 209,60.5C 209.333,61.8333 209.667,63.1667 210,64.5C 210.789,60.9085 210.622,57.4085 209.5,54C 210.244,52.9614 211.244,52.4614 212.5,52.5 Z"/></g>
<g><path style="opacity:1" fill="#12110f" d="M 15.5,4.5 C 15.0399,7.95679 13.0399,9.62346 9.5,9.5C 9.31181,11.1033 9.81181,12.4366 11,13.5C 12.3333,12.1667 13.6667,10.8333 15,9.5C 15.2602,11.6175 16.2602,13.2842 18,14.5C 18.9745,12.1224 19.6411,12.4557 20,15.5C 22.0923,16.6399 24.259,16.6399 26.5,15.5C 27.7706,18.8913 29.9373,19.8913 33,18.5C 35.3192,19.709 37.8192,20.5423 40.5,21C 41.3366,22.0113 41.67,23.1779 41.5,24.5C 42.8221,24.67 43.9887,24.3366 45,23.5C 45.5497,26.2634 46.3831,28.9301 47.5,31.5C 47.3918,32.4419 47.0585,33.2753 46.5,34C 45.2341,34.3095 44.0674,34.8095 43,35.5C 41.9887,34.6634 40.8221,34.33 39.5,34.5C 39.33,33.1779 39.6634,32.0113 40.5,31C 39.0231,29.1164 37.6898,27.1164 36.5,25C 34.3594,24.1163 32.6927,24.6163 31.5,26.5C 33.1493,27.9882 35.1493,28.9882 37.5,29.5C 37.67,33.4618 37.3367,37.4618 36.5,41.5C 38.288,41.2148 39.9547,41.5481 41.5,42.5C 45.0924,45.7838 49.0924,48.4505 53.5,50.5C 54.5896,49.6086 54.5896,48.6086 53.5,47.5C 54.4415,47.5105 55.1081,47.0105 55.5,46C 55.1667,45.5 54.8333,45 54.5,44.5C 52.5331,45.6816 51.1997,45.0149 50.5,42.5C 48.0563,45.1339 46.0563,44.8006 44.5,41.5C 46.2878,39.2092 48.2878,37.0425 50.5,35C 53.634,34.2099 56.634,34.5432 59.5,36C 58.8016,36.9707 58.8016,38.1374 59.5,39.5C 57.887,42.6119 56.887,45.9453 56.5,49.5C 58.288,49.2148 59.9547,49.5481 61.5,50.5C 59.2402,50.2328 56.9069,50.7328 54.5,52C 56.6181,53.5492 58.9515,54.7158 61.5,55.5C 61.9424,56.7387 62.6091,57.7387 63.5,58.5C 63.2852,60.1788 63.9519,61.1788 65.5,61.5C 65.5,62.5 65.5,63.5 65.5,64.5C 63.0733,64.523 60.74,65.023 58.5,66C 56.6213,68.5241 54.288,70.3575 51.5,71.5C 46.6634,73.4199 41.9967,75.5866 37.5,78C 38.4158,78.2784 39.0825,78.7784 39.5,79.5C 38.71,80.6085 38.21,81.9419 38,83.5C 37.79,81.9419 37.29,80.6085 36.5,79.5C 36.5,79.1667 36.5,78.8333 36.5,78.5C 36.5,77.1667 36.5,75.8333 36.5,74.5C 34.5,75.1667 32.5,75.8333 30.5,76.5C 30.5,75.1667 30.5,73.8333 30.5,72.5C 27.2084,72.1196 24.8751,73.4529 23.5,76.5C 22.7022,78.0777 22.2022,79.7444 22,81.5C 21.6174,80.944 21.1174,80.6107 20.5,80.5C 18.0589,78.9704 16.8922,76.637 17,73.5C 14.6949,75.8163 11.8616,77.1496 8.5,77.5C 9.60851,79.2141 8.94185,79.8808 6.5,79.5C 6.33351,69.1613 6.50017,58.828 7,48.5C 7.11034,55.0254 8.11034,61.0254 10,66.5C 12.2537,63.0054 12.4203,59.6721 10.5,56.5C 12.358,53.4184 12.358,50.0851 10.5,46.5C 9.26381,45.7542 7.93047,45.4208 6.5,45.5C 6.82713,35.6522 6.4938,25.9856 5.5,16.5C 5.21614,13.2234 5.54948,10.0567 6.5,7C 5.23965,5.88695 4.07298,5.72028 3,6.5C 2.66279,31.5014 2.82946,56.5014 3.5,81.5C 2.54308,56.3221 1.20974,31.3221 -0.5,6.5C -0.5,6.16667 -0.5,5.83333 -0.5,5.5C 4.74012,4.55087 10.0735,4.21754 15.5,4.5 Z"/></g>
<g><path style="opacity:1" fill="#2b241b" d="M 87.5,71.5 C 87.631,72.2389 87.4643,72.9056 87,73.5C 86.1627,71.9926 84.9961,71.4926 83.5,72C 81.3722,77.6216 77.7055,81.7882 72.5,84.5C 74.1436,82.5193 75.8103,80.5193 77.5,78.5C 75.8199,77.2311 74.6532,75.5644 74,73.5C 72.6012,74.2266 71.1012,74.7266 69.5,75C 68.9103,76.5095 68.2436,78.0095 67.5,79.5C 66.6302,76.1393 67.6302,73.306 70.5,71C 69.944,70.6174 69.6107,70.1174 69.5,69.5C 70.7498,69.5774 71.5831,70.244 72,71.5C 74.2992,69.0346 76.4659,66.5346 78.5,64C 76.4411,62.502 75.1078,60.502 74.5,58C 72.1667,57.3333 69.8333,57.3333 67.5,58C 66.9152,59.3024 66.2485,60.469 65.5,61.5C 63.9519,61.1788 63.2852,60.1788 63.5,58.5C 63.8333,57.8333 64.1667,57.1667 64.5,56.5C 67.7431,55.42 71.0764,55.2534 74.5,56C 77.0385,59.1973 79.5385,62.3639 82,65.5C 83.3068,66.7717 84.8068,67.7717 86.5,68.5C 87.1272,69.4168 87.4606,70.4168 87.5,71.5 Z"/></g>
<g><path style="opacity:1" fill="#b9baba" d="M 115.5,68.5 C 144.167,68.5 172.833,68.5 201.5,68.5C 201.5,107.167 201.5,145.833 201.5,184.5C 192.167,184.5 182.833,184.5 173.5,184.5C 154.167,184.5 134.833,184.5 115.5,184.5C 115.5,145.833 115.5,107.167 115.5,68.5 Z"/></g>
<g><path style="opacity:1" fill="#644530" d="M 51.5,71.5 C 52.7562,71.4614 53.7562,71.9614 54.5,73C 52.9419,73.21 51.6085,73.71 50.5,74.5C 50.3843,78.275 48.3843,79.9417 44.5,79.5C 42.549,79.2267 41.049,79.8934 40,81.5C 39.5357,80.9056 39.369,80.2389 39.5,79.5C 39.0825,78.7784 38.4158,78.2784 37.5,78C 41.9967,75.5866 46.6634,73.4199 51.5,71.5 Z"/></g>
<g><path style="opacity:0.88" fill="#423d39" d="M -0.5,6.5 C 1.20974,31.3221 2.54308,56.3221 3.5,81.5C 3.66463,84.5184 3.49796,87.5184 3,90.5C 2.7978,88.7444 2.2978,87.0777 1.5,85.5C 0.818153,86.2427 0.151487,86.9094 -0.5,87.5C -0.5,60.5 -0.5,33.5 -0.5,6.5 Z"/></g>
<g><path style="opacity:1" fill="#73392d" d="M 36.5,78.5 C 36.5,78.8333 36.5,79.1667 36.5,79.5C 36.762,80.9778 36.4287,82.3112 35.5,83.5C 32.5048,81.3998 29.3381,81.0664 26,82.5C 24.7211,80.2807 25.3878,78.2807 28,76.5C 28.4828,77.448 28.6495,78.448 28.5,79.5C 30.8273,79.2471 32.8273,79.9137 34.5,81.5C 35.1757,80.3984 35.8423,79.3984 36.5,78.5 Z"/></g>
<g><path style="opacity:1" fill="#131310" d="M 69.5,69.5 C 69.6107,70.1174 69.944,70.6174 70.5,71C 67.6302,73.306 66.6302,76.1393 67.5,79.5C 68.2436,78.0095 68.9103,76.5095 69.5,75C 71.1012,74.7266 72.6012,74.2266 74,73.5C 74.6532,75.5644 75.8199,77.2311 77.5,78.5C 75.8103,80.5193 74.1436,82.5193 72.5,84.5C 74.1016,86.0739 76.1016,86.7406 78.5,86.5C 78.5198,88.143 77.8532,89.4763 76.5,90.5C 78.2516,92.2459 79.5849,94.2459 80.5,96.5C 78.2719,95.2867 76.2719,93.62 74.5,91.5C 70.288,93.7222 70.6213,94.8888 75.5,95C 76.7051,96.3756 78.0384,97.5423 79.5,98.5C 78.5,99.1667 77.5,99.8333 76.5,100.5C 74.5,100.833 72.5,101.167 70.5,101.5C 70.5,99.1667 70.5,96.8333 70.5,94.5C 68.2341,94.1412 66.4007,94.8078 65,96.5C 63.3732,95.4677 62.2066,94.1344 61.5,92.5C 62.3414,90.6208 62.6747,88.6208 62.5,86.5C 58.5665,86.1337 55.8998,87.8003 54.5,91.5C 53.0508,92.1719 51.7175,92.8386 50.5,93.5C 48.9004,95.8505 46.567,97.1839 43.5,97.5C 42.8933,97.3764 42.56,97.0431 42.5,96.5C 44.9603,93.9158 46.127,90.9158 46,87.5C 45.7679,88.7375 45.2679,89.7375 44.5,90.5C 42.6693,91.0522 41.0026,91.0522 39.5,90.5C 38.2011,91.09 37.3678,92.09 37,93.5C 36.296,91.273 35.1294,90.9397 33.5,92.5C 33.5,91.1667 33.5,89.8333 33.5,88.5C 35.5681,87.6252 37.5681,86.4585 39.5,85C 41.0368,83.8904 41.7035,82.3904 41.5,80.5C 42.791,80.7373 43.791,80.404 44.5,79.5C 48.3843,79.9417 50.3843,78.275 50.5,74.5C 52.4672,74.7394 54.3005,74.4061 56,73.5C 56.2492,74.624 56.7492,75.624 57.5,76.5C 59.6357,75.1406 59.9691,73.3072 58.5,71C 59.402,67.9327 61.402,66.9327 64.5,68C 64.9437,69.5333 65.277,71.0333 65.5,72.5C 66.5,71.1667 67.5,69.8333 68.5,68.5C 69.1067,68.6236 69.44,68.9569 69.5,69.5 Z"/></g>
<g><path style="opacity:1" fill="#3f251e" d="M 36.5,78.5 C 35.8423,79.3984 35.1757,80.3984 34.5,81.5C 32.8273,79.9137 30.8273,79.2471 28.5,79.5C 28.6495,78.448 28.4828,77.448 28,76.5C 25.3878,78.2807 24.7211,80.2807 26,82.5C 29.3381,81.0664 32.5048,81.3998 35.5,83.5C 36.4287,82.3112 36.762,80.9778 36.5,79.5C 37.29,80.6085 37.79,81.9419 38,83.5C 38.21,81.9419 38.71,80.6085 39.5,79.5C 39.369,80.2389 39.5357,80.9056 40,81.5C 41.049,79.8934 42.549,79.2267 44.5,79.5C 43.791,80.404 42.791,80.7373 41.5,80.5C 41.7035,82.3904 41.0368,83.8904 39.5,85C 37.5681,86.4585 35.5681,87.6252 33.5,88.5C 31.8333,87.1667 30.1667,87.1667 28.5,88.5C 26.4832,87.4706 24.4832,86.4706 22.5,85.5C 22.2882,83.6159 21.2882,82.2826 19.5,81.5C 19.6236,80.8933 19.9569,80.56 20.5,80.5C 21.1174,80.6107 21.6174,80.944 22,81.5C 22.2022,79.7444 22.7022,78.0777 23.5,76.5C 24.8751,73.4529 27.2084,72.1196 30.5,72.5C 30.5,73.8333 30.5,75.1667 30.5,76.5C 32.5,75.8333 34.5,75.1667 36.5,74.5C 36.5,75.8333 36.5,77.1667 36.5,78.5 Z"/></g>
<g><path style="opacity:1" fill="#84868b" d="M 104.5,53.5 C 104.576,64.9439 104.576,76.6106 104.5,88.5C 104.825,95.6866 104.491,102.687 103.5,109.5C 103.5,108.833 103.5,108.167 103.5,107.5C 103.815,103.629 103.482,99.9619 102.5,96.5C 104.031,95.0755 103.698,94.4088 101.5,94.5C 102.091,93.8485 102.757,93.1818 103.5,92.5C 101.678,91.5714 100.345,92.2381 99.5,94.5C 99.6236,95.1067 99.9569,95.44 100.5,95.5C 98.7334,97.8901 96.4001,99.5568 93.5,100.5C 95.9268,96.0152 99.0935,92.0152 103,88.5C 103.5,77.8385 103.667,67.1719 103.5,56.5C 103.557,55.391 103.89,54.391 104.5,53.5 Z"/></g>
<g><path style="opacity:1" fill="#e4e4e4" d="M 200.5,70.5 C 192.493,70.3336 184.493,70.5003 176.5,71C 173.164,70.9983 170.83,72.4983 169.5,75.5C 168.808,74.9747 168.308,74.3081 168,73.5C 167.5,74.6667 166.667,75.5 165.5,76C 165.404,77.373 165.57,78.873 166,80.5C 165.667,80.1667 165.333,79.8333 165,79.5C 163.954,81.0905 162.787,82.5905 161.5,84C 163.058,84.21 164.391,84.71 165.5,85.5C 163.5,85.5 161.5,85.5 159.5,85.5C 158.081,84.5489 156.415,84.2155 154.5,84.5C 154.196,87.3722 154.029,90.0389 154,92.5C 153.439,91.9781 152.772,91.6448 152,91.5C 150.726,92.5353 149.56,93.702 148.5,95C 147.551,95.6172 146.718,95.4506 146,94.5C 145.833,94.8333 145.667,95.1667 145.5,95.5C 146.376,96.2508 147.376,96.7508 148.5,97C 144.986,99.9191 141.319,102.586 137.5,105C 137.833,105.333 138.167,105.667 138.5,106C 136.283,107.275 133.949,108.275 131.5,109C 131.833,109.333 132.167,109.667 132.5,110C 130.04,113.297 127.374,116.464 124.5,119.5C 123.311,120.429 121.978,120.762 120.5,120.5C 120.206,123.754 118.873,126.421 116.5,128.5C 116.5,108.833 116.5,89.1667 116.5,69.5C 144.672,69.1687 172.672,69.502 200.5,70.5 Z"/></g>
<g><path style="opacity:1" fill="#754431" d="M 22.5,85.5 C 24.4832,86.4706 26.4832,87.4706 28.5,88.5C 28.5,89.1667 28.1667,89.5 27.5,89.5C 24.722,89.8057 22.222,90.8057 20,92.5C 19.1667,92.3333 18.3333,92.1667 17.5,92C 19.4054,91.1739 19.7388,90.0072 18.5,88.5C 17.1764,90.4465 15.5097,90.4465 13.5,88.5C 11.9341,85.7599 12.4341,83.4266 15,81.5C 17.2575,83.3989 18.5909,85.3989 19,87.5C 20.3026,87.0217 21.4693,86.355 22.5,85.5 Z"/></g>
<g><path style="opacity:1" fill="#b3b3b3" d="M 137.5,84.5 C 138.79,85.0577 139.623,86.0577 140,87.5C 142.106,85.709 144.606,85.0423 147.5,85.5C 147.5,86.5 147.5,87.5 147.5,88.5C 143.818,88.6653 140.152,88.4986 136.5,88C 137.337,86.9887 137.67,85.8221 137.5,84.5 Z"/></g>
<g><path style="opacity:1" fill="#dadada" d="M 200.5,70.5 C 200.5,86.1667 200.5,101.833 200.5,117.5C 199.816,123.901 199.15,130.401 198.5,137C 198.944,138.533 199.277,140.033 199.5,141.5C 198.315,142.853 196.981,144.02 195.5,145C 195.847,146.569 196.014,148.402 196,150.5C 195.692,149.692 195.192,149.025 194.5,148.5C 192.517,148.815 191.184,149.815 190.5,151.5C 188.143,151.663 185.81,151.497 183.5,151C 184.563,149.812 185.897,149.312 187.5,149.5C 187.719,148.325 187.386,147.325 186.5,146.5C 182.966,147.131 179.466,147.798 176,148.5C 174.635,147.407 174.301,146.074 175,144.5C 177.719,145.444 180.552,145.777 183.5,145.5C 183.5,144.5 183.5,143.5 183.5,142.5C 172.192,142.861 161.025,142.861 150,142.5C 146.069,142.544 142.402,143.211 139,144.5C 136.861,143.231 134.695,143.231 132.5,144.5C 134.423,145.308 136.423,145.808 138.5,146C 133.833,146.333 129.167,146.667 124.5,147C 123.692,147.308 123.025,147.808 122.5,148.5C 125.836,149.24 129.17,149.906 132.5,150.5C 132.833,150.833 133.167,151.167 133.5,151.5C 132.833,151.833 132.167,152.167 131.5,152.5C 128.373,152.284 125.373,152.284 122.5,152.5C 125.331,153.36 128.331,154.193 131.5,155C 128.518,155.498 125.518,155.665 122.5,155.5C 122.343,156.873 122.51,158.207 123,159.5C 128.92,158.888 135.087,158.555 141.5,158.5C 141.5,157.5 141.5,156.5 141.5,155.5C 139.237,154.298 139.571,154.298 142.5,155.5C 142.285,157.179 142.952,158.179 144.5,158.5C 152.5,159.167 160.5,159.833 168.5,160.5C 166.712,160.215 165.045,160.548 163.5,161.5C 167.443,162.278 171.776,163.112 176.5,164C 173.81,164.771 171.144,165.604 168.5,166.5C 171.645,167.995 174.478,167.662 177,165.5C 177.5,166 178,166.5 178.5,167C 182.821,167.499 187.154,167.666 191.5,167.5C 191.672,168.492 191.338,169.158 190.5,169.5C 186.245,169.087 181.745,169.087 177,169.5C 173.167,169.833 169.333,170.167 165.5,170.5C 165.957,171.298 166.624,171.631 167.5,171.5C 167.082,172.222 166.416,172.722 165.5,173C 167.379,173.96 169.379,174.46 171.5,174.5C 170.167,175.5 170.167,176.5 171.5,177.5C 170.502,180.028 169.669,180.028 169,177.5C 167.933,178.191 166.766,178.691 165.5,179C 166.604,180.131 166.271,180.965 164.5,181.5C 162.36,180.894 160.193,181.227 158,182.5C 144.592,182.396 130.759,182.396 116.5,182.5C 116.5,164.5 116.5,146.5 116.5,128.5C 118.873,126.421 120.206,123.754 120.5,120.5C 121.978,120.762 123.311,120.429 124.5,119.5C 127.374,116.464 130.04,113.297 132.5,110C 132.167,109.667 131.833,109.333 131.5,109C 133.949,108.275 136.283,107.275 138.5,106C 138.167,105.667 137.833,105.333 137.5,105C 141.319,102.586 144.986,99.9191 148.5,97C 147.376,96.7508 146.376,96.2508 145.5,95.5C 145.667,95.1667 145.833,94.8333 146,94.5C 146.718,95.4506 147.551,95.6172 148.5,95C 149.56,93.702 150.726,92.5353 152,91.5C 152.772,91.6448 153.439,91.9781 154,92.5C 154.029,90.0389 154.196,87.3722 154.5,84.5C 156.415,84.2155 158.081,84.5489 159.5,85.5C 158.022,85.238 156.689,85.5713 155.5,86.5C 156.289,88.4879 157.455,88.8213 159,87.5C 166.083,88.5456 173.25,89.2123 180.5,89.5C 180.5,88.1667 180.5,86.8333 180.5,85.5C 175.135,84.7723 170.135,84.7723 165.5,85.5C 164.391,84.71 163.058,84.21 161.5,84C 162.787,82.5905 163.954,81.0905 165,79.5C 165.333,79.8333 165.667,80.1667 166,80.5C 165.57,78.873 165.404,77.373 165.5,76C 166.667,75.5 167.5,74.6667 168,73.5C 168.308,74.3081 168.808,74.9747 169.5,75.5C 170.83,72.4983 173.164,70.9983 176.5,71C 184.493,70.5003 192.493,70.3336 200.5,70.5 Z"/></g>
<g><path style="opacity:1" fill="#b1b1b1" d="M 159.5,85.5 C 161.5,85.5 163.5,85.5 165.5,85.5C 170.135,84.7723 175.135,84.7723 180.5,85.5C 180.5,86.8333 180.5,88.1667 180.5,89.5C 173.25,89.2123 166.083,88.5456 159,87.5C 157.455,88.8213 156.289,88.4879 155.5,86.5C 156.689,85.5713 158.022,85.238 159.5,85.5 Z"/></g>
<g><path style="opacity:1" fill="#622c21" d="M 52.5,86.5 C 54.7583,86.7751 55.0916,87.7751 53.5,89.5C 52.3112,90.4287 50.9778,90.762 49.5,90.5C 49.5,89.5 49.5,88.5 49.5,87.5C 50.791,87.7373 51.791,87.404 52.5,86.5 Z"/></g>
<g><path style="opacity:1" fill="#5f362c" d="M 61.5,92.5 C 60.1497,93.4831 59.1497,94.8164 58.5,96.5C 57.1841,93.972 56.0174,93.972 55,96.5C 54.2588,95.3595 53.4255,95.3595 52.5,96.5C 51.0815,95.9953 50.4148,94.9953 50.5,93.5C 51.7175,92.8386 53.0508,92.1719 54.5,91.5C 55.8998,87.8003 58.5665,86.1337 62.5,86.5C 62.6747,88.6208 62.3414,90.6208 61.5,92.5 Z"/></g>
<g><path style="opacity:1" fill="#6b5149" d="M 3.5,81.5 C 4.5,81.5 5.5,81.5 6.5,81.5C 6.33982,83.1992 6.50649,84.8659 7,86.5C 7.67076,85.7476 8.5041,85.4142 9.5,85.5C 10.1667,87.5 11.5,88.8333 13.5,89.5C 11.1142,91.3945 9.11421,93.7278 7.5,96.5C 6.51998,99.0865 6.18665,101.753 6.5,104.5C 5.5041,104.586 4.67076,104.252 4,103.5C 3.53566,104.094 3.36899,104.761 3.5,105.5C 3.16667,106.167 2.83333,106.833 2.5,107.5C 0.939706,105.844 -0.0602941,103.844 -0.5,101.5C -0.5,96.8333 -0.5,92.1667 -0.5,87.5C 0.151487,86.9094 0.818153,86.2427 1.5,85.5C 2.2978,87.0777 2.7978,88.7444 3,90.5C 3.49796,87.5184 3.66463,84.5184 3.5,81.5 Z"/></g>
<g><path style="opacity:1" fill="#211a16" d="M 103.5,56.5 C 103.667,67.1719 103.5,77.8385 103,88.5C 99.0935,92.0152 95.9268,96.0152 93.5,100.5C 92.5,100.833 91.8333,101.5 91.5,102.5C 89.4449,103.948 87.2782,105.281 85,106.5C 84.5357,105.906 84.369,105.239 84.5,104.5C 85.8675,102.858 86.2008,101.192 85.5,99.5C 83.1369,100.17 80.8036,100.837 78.5,101.5C 77.8333,101.167 77.1667,100.833 76.5,100.5C 77.5,99.8333 78.5,99.1667 79.5,98.5C 80.3382,98.1583 80.6716,97.4916 80.5,96.5C 79.5849,94.2459 78.2516,92.2459 76.5,90.5C 77.8532,89.4763 78.5198,88.143 78.5,86.5C 76.1016,86.7406 74.1016,86.0739 72.5,84.5C 77.7055,81.7882 81.3722,77.6216 83.5,72C 84.9961,71.4926 86.1627,71.9926 87,73.5C 87.4643,72.9056 87.631,72.2389 87.5,71.5C 88.7095,71.9321 89.7095,72.5987 90.5,73.5C 89.3794,75.3157 88.8794,77.3157 89,79.5C 89.3333,79.1667 89.6667,78.8333 90,78.5C 90.9282,81.0352 92.7615,82.0352 95.5,81.5C 94.332,89.9609 96.4987,91.2942 102,85.5C 102.495,83.5273 102.662,81.5273 102.5,79.5C 102.5,72.8333 102.5,66.1667 102.5,59.5C 102.263,58.209 102.596,57.209 103.5,56.5 Z"/></g>
<g><path style="opacity:1" fill="#391815" d="M 90.5,73.5 C 91.1032,75.6794 91.7699,77.846 92.5,80C 94.5,80.3333 96.5,80.6667 98.5,81C 97.2528,82.4936 97.2528,83.9936 98.5,85.5C 100.316,83.7097 101.649,81.7097 102.5,79.5C 102.662,81.5273 102.495,83.5273 102,85.5C 96.4987,91.2942 94.332,89.9609 95.5,81.5C 92.7615,82.0352 90.9282,81.0352 90,78.5C 89.6667,78.8333 89.3333,79.1667 89,79.5C 88.8794,77.3157 89.3794,75.3157 90.5,73.5 Z"/></g>
<g><path style="opacity:1" fill="#232524" d="M 101.5,94.5 C 101.5,95.1667 101.167,95.5 100.5,95.5C 99.9569,95.44 99.6236,95.1067 99.5,94.5C 100.345,92.2381 101.678,91.5714 103.5,92.5C 102.757,93.1818 102.091,93.8485 101.5,94.5 Z"/></g>
<g><path style="opacity:1" fill="#4b4d50" d="M 114.5,68.5 C 114.5,90.5 114.5,112.5 114.5,134.5C 113.834,137.028 113.168,139.694 112.5,142.5C 110.517,143.982 108.684,145.649 107,147.5C 106.579,143.128 105.912,138.795 105,134.5C 104.5,148.496 104.333,162.496 104.5,176.5C 104.827,186.015 104.494,195.348 103.5,204.5C 103.5,203.5 103.5,202.5 103.5,201.5C 103.828,189.655 103.495,177.988 102.5,166.5C 102.5,165.5 102.5,164.5 102.5,163.5C 102.179,161.952 101.179,161.285 99.5,161.5C 98.6285,158.938 98.6285,156.272 99.5,153.5C 101.397,151.302 102.397,148.636 102.5,145.5C 103.833,133.833 103.833,122.167 102.5,110.5C 102.5,109.833 102.833,109.5 103.5,109.5C 104.491,102.687 104.825,95.6866 104.5,88.5C 105.325,84.3528 105.825,80.0195 106,75.5C 106.333,84.5 106.667,93.5 107,102.5C 107.58,99.8387 108.414,97.3387 109.5,95C 111.108,94.342 112.275,94.842 113,96.5C 113.17,86.991 113.67,77.6577 114.5,68.5 Z"/></g>
<g><path style="opacity:1" fill="#54211f" d="M 80.5,96.5 C 80.6716,97.4916 80.3382,98.1583 79.5,98.5C 78.0384,97.5423 76.7051,96.3756 75.5,95C 70.6213,94.8888 70.288,93.7222 74.5,91.5C 76.2719,93.62 78.2719,95.2867 80.5,96.5 Z"/></g>
<g><path style="opacity:1" fill="#b4aeab" d="M 33.5,88.5 C 33.5,89.8333 33.5,91.1667 33.5,92.5C 30.928,98.216 28.928,104.216 27.5,110.5C 26.375,111.348 26.375,112.348 27.5,113.5C 26.5,114.833 25.5,116.167 24.5,117.5C 23.6977,118.885 23.0311,118.718 22.5,117C 23.4262,113.459 24.4262,109.959 25.5,106.5C 27.9655,101.618 29.9655,96.4514 31.5,91C 31.1667,90.5 30.8333,90 30.5,89.5C 24.501,93.4143 21.8343,98.7477 22.5,105.5C 21.8333,105.5 21.1667,105.5 20.5,105.5C 19.6765,103.545 19.5099,101.545 20,99.5C 21.9474,95.7238 24.4474,92.3904 27.5,89.5C 28.1667,89.5 28.5,89.1667 28.5,88.5C 30.1667,87.1667 31.8333,87.1667 33.5,88.5 Z"/></g>
<g><path style="opacity:1" fill="#dadada" d="M 42.5,96.5 C 41.8333,96.5 41.5,96.8333 41.5,97.5C 40.8333,97.5 40.5,97.1667 40.5,96.5C 41.4411,94.2279 42.7745,92.2279 44.5,90.5C 45.2679,89.7375 45.7679,88.7375 46,87.5C 46.127,90.9158 44.9603,93.9158 42.5,96.5 Z"/></g>
<g><path style="opacity:1" fill="#332a26" d="M 44.5,90.5 C 42.7745,92.2279 41.4411,94.2279 40.5,96.5C 37.4503,98.5491 35.117,101.216 33.5,104.5C 31.5,106.5 29.5,108.5 27.5,110.5C 28.928,104.216 30.928,98.216 33.5,92.5C 35.1294,90.9397 36.296,91.273 37,93.5C 37.3678,92.09 38.2011,91.09 39.5,90.5C 41.0026,91.0522 42.6693,91.0522 44.5,90.5 Z"/></g>
<g><path style="opacity:1" fill="#3b2a23" d="M 61.5,92.5 C 62.2066,94.1344 63.3732,95.4677 65,96.5C 66.4007,94.8078 68.2341,94.1412 70.5,94.5C 70.5,96.8333 70.5,99.1667 70.5,101.5C 72.5,101.167 74.5,100.833 76.5,100.5C 77.1667,100.833 77.8333,101.167 78.5,101.5C 74.6266,103.347 70.96,105.68 67.5,108.5C 66.3347,107.14 66.668,106.14 68.5,105.5C 69.7969,103.307 69.7969,100.973 68.5,98.5C 65.6919,99.9696 62.6919,100.803 59.5,101C 58.1772,101.816 57.5106,102.983 57.5,104.5C 55.3144,105.27 53.1477,106.27 51,107.5C 50.5,107.167 50,106.833 49.5,106.5C 50.2458,105.264 50.5792,103.93 50.5,102.5C 47.8205,102.673 45.4872,103.673 43.5,105.5C 43.6038,103.515 44.9371,102.015 47.5,101C 42.1046,101.227 39.1046,104.061 38.5,109.5C 40.2161,109.371 41.8828,109.038 43.5,108.5C 41.4601,112.299 38.7934,112.966 35.5,110.5C 35.5792,109.07 35.2458,107.736 34.5,106.5C 35.6283,105.738 36.7949,105.071 38,104.5C 38.6917,103.563 38.525,102.897 37.5,102.5C 38.8333,100.833 40.1667,99.1667 41.5,97.5C 41.5,96.8333 41.8333,96.5 42.5,96.5C 42.56,97.0431 42.8933,97.3764 43.5,97.5C 46.567,97.1839 48.9004,95.8505 50.5,93.5C 50.4148,94.9953 51.0815,95.9953 52.5,96.5C 53.4255,95.3595 54.2588,95.3595 55,96.5C 56.0174,93.972 57.1841,93.972 58.5,96.5C 59.1497,94.8164 60.1497,93.4831 61.5,92.5 Z"/></g>
<g><path style="opacity:1" fill="#dddbda" d="M 101.5,94.5 C 103.698,94.4088 104.031,95.0755 102.5,96.5C 99.5165,99.3258 96.1832,101.659 92.5,103.5C 91.8333,103.5 91.5,103.167 91.5,102.5C 91.8333,101.5 92.5,100.833 93.5,100.5C 96.4001,99.5568 98.7334,97.8901 100.5,95.5C 101.167,95.5 101.5,95.1667 101.5,94.5 Z"/></g>
<g><path style="opacity:1" fill="#958e8b" d="M 40.5,96.5 C 40.5,97.1667 40.8333,97.5 41.5,97.5C 40.1667,99.1667 38.8333,100.833 37.5,102.5C 36.3951,103.6 35.0618,104.267 33.5,104.5C 35.117,101.216 37.4503,98.5491 40.5,96.5 Z"/></g>
<g><path style="opacity:1" fill="#3d2821" d="M 102.5,96.5 C 103.482,99.9619 103.815,103.629 103.5,107.5C 102.115,108.614 100.615,109.614 99,110.5C 99.9372,108.326 100.771,105.993 101.5,103.5C 96.8719,103.807 93.2052,105.807 90.5,109.5C 89.9569,109.44 89.6236,109.107 89.5,108.5C 90.9524,107.06 91.9524,105.394 92.5,103.5C 96.1832,101.659 99.5165,99.3258 102.5,96.5 Z"/></g>
<g><path style="opacity:1" fill="#513830" d="M 13.5,88.5 C 15.5097,90.4465 17.1764,90.4465 18.5,88.5C 19.7388,90.0072 19.4054,91.1739 17.5,92C 18.3333,92.1667 19.1667,92.3333 20,92.5C 22.222,90.8057 24.722,89.8057 27.5,89.5C 24.4474,92.3904 21.9474,95.7238 20,99.5C 19.5099,101.545 19.6765,103.545 20.5,105.5C 20.6715,107.492 20.0049,109.158 18.5,110.5C 18.9767,111.478 19.6433,112.311 20.5,113C 17.2106,113.746 14.7106,112.58 13,109.5C 12.5439,108.256 13.0439,107.423 14.5,107C 11.7513,107.239 9.08468,107.072 6.5,106.5C 6.5,105.833 6.5,105.167 6.5,104.5C 6.18665,101.753 6.51998,99.0865 7.5,96.5C 9.11421,93.7278 11.1142,91.3945 13.5,89.5C 13.5,89.1667 13.5,88.8333 13.5,88.5 Z"/></g>
<g><path style="opacity:1" fill="#6d3728" d="M 68.5,105.5 C 68.719,104.325 68.3857,103.325 67.5,102.5C 65.4235,104.288 63.2568,105.954 61,107.5C 60.6666,105.953 61.1666,104.62 62.5,103.5C 62.1667,103.167 61.8333,102.833 61.5,102.5C 60.3777,103.63 59.0443,104.297 57.5,104.5C 57.5106,102.983 58.1772,101.816 59.5,101C 62.6919,100.803 65.6919,99.9696 68.5,98.5C 69.7969,100.973 69.7969,103.307 68.5,105.5 Z"/></g>
<g><path style="opacity:1" fill="#b0b0b0" d="M 167.5,105.5 C 164.949,109.238 164.282,113.238 165.5,117.5C 164.178,115.737 162.678,114.07 161,112.5C 160.085,113.328 159.419,114.328 159,115.5C 157.648,113.406 157.148,111.073 157.5,108.5C 161.762,110.216 162.429,109.382 159.5,106C 161.021,102.189 160.355,101.689 157.5,104.5C 155.698,103.725 155.031,102.725 155.5,101.5C 158.686,97.4813 161.519,97.8146 164,102.5C 164.667,101.833 165.333,101.167 166,100.5C 166.198,102.382 166.698,104.048 167.5,105.5 Z"/></g>
<g><path style="opacity:1" fill="#838383" d="M 155.5,101.5 C 155.031,102.725 155.698,103.725 157.5,104.5C 160.355,101.689 161.021,102.189 159.5,106C 162.429,109.382 161.762,110.216 157.5,108.5C 156.368,107.646 155.035,107.646 153.5,108.5C 153.297,106.956 152.63,105.622 151.5,104.5C 152.467,103.016 153.8,102.016 155.5,101.5 Z"/></g>
<g><path style="opacity:1" fill="#4a3e36" d="M 25.5,106.5 C 24.791,105.596 23.791,105.263 22.5,105.5C 21.8343,98.7477 24.501,93.4143 30.5,89.5C 30.8333,90 31.1667,90.5 31.5,91C 29.9655,96.4514 27.9655,101.618 25.5,106.5 Z"/></g>
<g><path style="opacity:1" fill="#dad6d4" d="M 84.5,104.5 C 83.735,103.34 82.735,102.34 81.5,101.5C 79.4602,103.177 77.4602,104.844 75.5,106.5C 76.7117,106.07 78.045,106.07 79.5,106.5C 78.5,106.833 77.8333,107.5 77.5,108.5C 76.391,108.557 75.391,108.89 74.5,109.5C 73.8485,108.909 73.1818,108.243 72.5,107.5C 70.3379,109.02 68.0046,110.02 65.5,110.5C 65.0133,109.527 64.5133,108.527 64,107.5C 62.1295,109.219 59.9628,110.219 57.5,110.5C 57.719,109.325 57.3857,108.325 56.5,107.5C 54.057,109.055 51.3903,109.722 48.5,109.5C 47.6256,104.713 45.9589,104.38 43.5,108.5C 41.8828,109.038 40.2161,109.371 38.5,109.5C 39.1046,104.061 42.1046,101.227 47.5,101C 44.9371,102.015 43.6038,103.515 43.5,105.5C 45.4872,103.673 47.8205,102.673 50.5,102.5C 50.5792,103.93 50.2458,105.264 49.5,106.5C 50,106.833 50.5,107.167 51,107.5C 53.1477,106.27 55.3144,105.27 57.5,104.5C 59.0443,104.297 60.3777,103.63 61.5,102.5C 61.8333,102.833 62.1667,103.167 62.5,103.5C 61.1666,104.62 60.6666,105.953 61,107.5C 63.2568,105.954 65.4235,104.288 67.5,102.5C 68.3857,103.325 68.719,104.325 68.5,105.5C 66.668,106.14 66.3347,107.14 67.5,108.5C 70.96,105.68 74.6266,103.347 78.5,101.5C 80.8036,100.837 83.1369,100.17 85.5,99.5C 86.2008,101.192 85.8675,102.858 84.5,104.5 Z"/></g>
<g><path style="opacity:1" fill="#cecccb" d="M 82.5,105.5 C 83.404,106.209 83.7373,107.209 83.5,108.5C 82.5,108.833 81.8333,109.5 81.5,110.5C 80.0048,110.989 78.6715,111.655 77.5,112.5C 75.3302,113.838 73.6635,115.672 72.5,118C 73.0944,118.464 73.7611,118.631 74.5,118.5C 74.5,118.833 74.5,119.167 74.5,119.5C 73.8333,119.833 73.1667,120.167 72.5,120.5C 71.5269,118.932 71.3603,117.265 72,115.5C 73.7073,113.963 75.2073,112.296 76.5,110.5C 76.8333,110.5 77.1667,110.5 77.5,110.5C 79.8333,109.5 81.5,107.833 82.5,105.5 Z"/></g>
<g><path style="opacity:1" fill="#8c8786" d="M 84.5,104.5 C 84.369,105.239 84.5357,105.906 85,106.5C 87.2782,105.281 89.4449,103.948 91.5,102.5C 91.5,103.167 91.8333,103.5 92.5,103.5C 91.9524,105.394 90.9524,107.06 89.5,108.5C 89.6236,109.107 89.9569,109.44 90.5,109.5C 89.3774,110.757 88.7107,110.424 88.5,108.5C 88.6309,107.624 88.2975,106.957 87.5,106.5C 86.1401,107.18 84.8068,107.847 83.5,108.5C 83.7373,107.209 83.404,106.209 82.5,105.5C 82.5654,105.062 82.3988,104.728 82,104.5C 81.2917,105.381 80.4584,106.047 79.5,106.5C 78.045,106.07 76.7117,106.07 75.5,106.5C 77.4602,104.844 79.4602,103.177 81.5,101.5C 82.735,102.34 83.735,103.34 84.5,104.5 Z"/></g>
<g><path style="opacity:1" fill="#5e5754" d="M 37.5,102.5 C 38.525,102.897 38.6917,103.563 38,104.5C 36.7949,105.071 35.6283,105.738 34.5,106.5C 35.2458,107.736 35.5792,109.07 35.5,110.5C 34.2223,110.218 33.2223,109.551 32.5,108.5C 30.4727,109.861 28.806,111.527 27.5,113.5C 26.375,112.348 26.375,111.348 27.5,110.5C 29.5,108.5 31.5,106.5 33.5,104.5C 35.0618,104.267 36.3951,103.6 37.5,102.5 Z"/></g>
<g><path style="opacity:1" fill="#2e2927" d="M 82.5,105.5 C 81.5,107.833 79.8333,109.5 77.5,110.5C 77.5,109.833 77.5,109.167 77.5,108.5C 77.8333,107.5 78.5,106.833 79.5,106.5C 80.4584,106.047 81.2917,105.381 82,104.5C 82.3988,104.728 82.5654,105.062 82.5,105.5 Z"/></g>
<g><path style="opacity:1" fill="#d25535" d="M 77.5,108.5 C 77.5,109.167 77.5,109.833 77.5,110.5C 77.1667,110.5 76.8333,110.5 76.5,110.5C 75.5084,110.672 74.8417,110.338 74.5,109.5C 75.391,108.89 76.391,108.557 77.5,108.5 Z"/></g>
<g><path style="opacity:1" fill="#c4c2c1" d="M 103.5,107.5 C 103.5,108.167 103.5,108.833 103.5,109.5C 102.833,109.5 102.5,109.833 102.5,110.5C 101.508,110.328 100.842,110.662 100.5,111.5C 99.1667,111.5 97.8333,111.5 96.5,111.5C 96.9052,109.35 97.4052,107.35 98,105.5C 95.8094,106.833 93.976,108.5 92.5,110.5C 90.7721,112.226 88.7721,113.559 86.5,114.5C 86.5,113.833 86.5,113.167 86.5,112.5C 86.2291,110.62 86.8958,109.287 88.5,108.5C 88.7107,110.424 89.3774,110.757 90.5,109.5C 93.2052,105.807 96.8719,103.807 101.5,103.5C 100.771,105.993 99.9372,108.326 99,110.5C 100.615,109.614 102.115,108.614 103.5,107.5 Z"/></g>
<g><path style="opacity:1" fill="#3c312d" d="M 65.5,110.5 C 66.0577,111.79 67.0577,112.623 68.5,113C 67,115.167 65.8333,115 65,112.5C 64.5065,114.134 64.3398,115.801 64.5,117.5C 64.5,119.833 64.5,122.167 64.5,124.5C 63.7839,122.444 63.1172,120.277 62.5,118C 60.0784,117.865 57.7451,118.365 55.5,119.5C 54.8333,118.167 54.1667,116.833 53.5,115.5C 54.9778,115.762 56.3112,115.429 57.5,114.5C 55.1458,111.517 52.1458,109.85 48.5,109.5C 51.3903,109.722 54.057,109.055 56.5,107.5C 57.3857,108.325 57.719,109.325 57.5,110.5C 59.9628,110.219 62.1295,109.219 64,107.5C 64.5133,108.527 65.0133,109.527 65.5,110.5 Z"/></g>
<g><path style="opacity:1" fill="#462922" d="M 74.5,109.5 C 74.8417,110.338 75.5084,110.672 76.5,110.5C 75.2073,112.296 73.7073,113.963 72,115.5C 71.3603,117.265 71.5269,118.932 72.5,120.5C 71.8549,121.812 70.8549,122.812 69.5,123.5C 69.4464,122.313 69.1131,120.98 68.5,119.5C 67.1401,118.82 65.8068,118.153 64.5,117.5C 64.3398,115.801 64.5065,114.134 65,112.5C 65.8333,115 67,115.167 68.5,113C 67.0577,112.623 66.0577,111.79 65.5,110.5C 68.0046,110.02 70.3379,109.02 72.5,107.5C 73.1818,108.243 73.8485,108.909 74.5,109.5 Z"/></g>
<g><path style="opacity:1" fill="#4d4d4d" d="M 168.5,110.5 C 168.894,111.967 169.227,113.467 169.5,115C 167.866,118.253 167.199,121.753 167.5,125.5C 164.119,125.46 160.786,125.793 157.5,126.5C 156.952,125.312 156.619,124.145 156.5,123C 148.722,121.406 148.722,120.573 156.5,120.5C 157.222,120.082 157.722,119.416 158,118.5C 159.666,119.34 159.833,118.84 158.5,117C 159.5,116.333 160.5,116.333 161.5,117C 162.435,119.381 162.768,121.881 162.5,124.5C 163.833,124.5 165.167,124.5 166.5,124.5C 166.552,122.097 166.219,119.764 165.5,117.5C 164.282,113.238 164.949,109.238 167.5,105.5C 167.846,103.295 168.513,103.128 169.5,105C 168.767,106.766 168.433,108.599 168.5,110.5 Z"/></g>
<g><path style="opacity:1" fill="#171613" d="M 48.5,109.5 C 52.1458,109.85 55.1458,111.517 57.5,114.5C 56.3112,115.429 54.9778,115.762 53.5,115.5C 50.3538,113.48 47.0205,113.146 43.5,114.5C 44.1043,117.381 45.4377,119.714 47.5,121.5C 46.0695,121.579 44.7362,121.246 43.5,120.5C 42.7285,118.138 41.8952,115.804 41,113.5C 39.3032,117.039 37.1365,117.373 34.5,114.5C 33.2528,112.677 32.5861,110.677 32.5,108.5C 33.2223,109.551 34.2223,110.218 35.5,110.5C 38.7934,112.966 41.4601,112.299 43.5,108.5C 45.9589,104.38 47.6256,104.713 48.5,109.5 Z"/></g>
<g><path style="opacity:1" fill="#3f2724" d="M 77.5,112.5 C 77.9382,112.435 78.2716,112.601 78.5,113C 77.035,114.774 75.7017,116.608 74.5,118.5C 73.7611,118.631 73.0944,118.464 72.5,118C 73.6635,115.672 75.3302,113.838 77.5,112.5 Z"/></g>
<g><path style="opacity:1" fill="#7d7370" d="M 81.5,110.5 C 80.925,112.411 79.925,114.078 78.5,115.5C 77.5275,117.139 76.1942,118.473 74.5,119.5C 74.5,119.167 74.5,118.833 74.5,118.5C 75.7017,116.608 77.035,114.774 78.5,113C 78.2716,112.601 77.9382,112.435 77.5,112.5C 78.6715,111.655 80.0048,110.989 81.5,110.5 Z"/></g>
<g><path style="opacity:1" fill="#a17a55" d="M 86.5,112.5 C 86.5,113.167 86.5,113.833 86.5,114.5C 86.5,115.5 86.5,116.5 86.5,117.5C 85.5084,117.672 84.8417,117.338 84.5,116.5C 84.6596,114.847 85.3263,113.514 86.5,112.5 Z"/></g>
<g><path style="opacity:1" fill="#7b7b7b" d="M 157.5,108.5 C 157.148,111.073 157.648,113.406 159,115.5C 159.419,114.328 160.085,113.328 161,112.5C 162.678,114.07 164.178,115.737 165.5,117.5C 166.219,119.764 166.552,122.097 166.5,124.5C 165.167,124.5 163.833,124.5 162.5,124.5C 162.768,121.881 162.435,119.381 161.5,117C 160.5,116.333 159.5,116.333 158.5,117C 159.833,118.84 159.666,119.34 158,118.5C 157.722,119.416 157.222,120.082 156.5,120.5C 156.611,116.651 155.278,113.484 152.5,111C 154.452,110.634 156.118,109.801 157.5,108.5 Z"/></g>
<g><path style="opacity:1" fill="#1b130e" d="M 88.5,108.5 C 86.8958,109.287 86.2291,110.62 86.5,112.5C 85.3263,113.514 84.6596,114.847 84.5,116.5C 83.407,118.349 82.0737,120.016 80.5,121.5C 79.7148,119.626 79.0482,117.626 78.5,115.5C 79.925,114.078 80.925,112.411 81.5,110.5C 81.8333,109.5 82.5,108.833 83.5,108.5C 84.8068,107.847 86.1401,107.18 87.5,106.5C 88.2975,106.957 88.6309,107.624 88.5,108.5 Z"/></g>
<g><path style="opacity:1" fill="#3b3124" d="M 100.5,111.5 C 101.812,113.743 102.478,116.41 102.5,119.5C 102.497,122.355 102.164,125.022 101.5,127.5C 101.389,126.883 101.056,126.383 100.5,126C 98.5273,125.505 96.5273,125.338 94.5,125.5C 94.8039,124.85 95.1373,124.183 95.5,123.5C 94.5,122.167 93.5,120.833 92.5,119.5C 93.376,118.749 94.376,118.249 95.5,118C 94.5,117.167 93.5,116.333 92.5,115.5C 93.371,113.942 94.371,112.275 95.5,110.5C 94.7666,109.913 93.7666,109.913 92.5,110.5C 93.976,108.5 95.8094,106.833 98,105.5C 97.4052,107.35 96.9052,109.35 96.5,111.5C 97.8333,111.5 99.1667,111.5 100.5,111.5 Z"/></g>
<g><path style="opacity:1" fill="#b4b4b4" d="M 153.5,108.5 C 155.035,107.646 156.368,107.646 157.5,108.5C 156.118,109.801 154.452,110.634 152.5,111C 155.278,113.484 156.611,116.651 156.5,120.5C 148.722,120.573 148.722,121.406 156.5,123C 156.619,124.145 156.952,125.312 157.5,126.5C 155.051,127.077 152.384,127.077 149.5,126.5C 147.833,126.167 146.167,125.833 144.5,125.5C 145.325,124.614 146.325,124.281 147.5,124.5C 148.177,120.691 146.843,117.858 143.5,116C 144.32,113.18 146.154,111.346 149,110.5C 149.333,107.167 149.667,103.833 150,100.5C 150.182,103.226 150.682,105.893 151.5,108.5C 152.429,109.55 153.095,109.55 153.5,108.5 Z"/></g>
<g><path style="opacity:1" fill="#9b9b9b" d="M 168.5,110.5 C 169.473,111.791 170.473,111.791 171.5,110.5C 173.13,115.669 173.464,120.835 172.5,126C 170.893,125.981 169.226,125.815 167.5,125.5C 167.199,121.753 167.866,118.253 169.5,115C 169.227,113.467 168.894,111.967 168.5,110.5 Z"/></g>
<g><path style="opacity:1" fill="#1c3a38" d="M 53.5,115.5 C 54.1667,116.833 54.8333,118.167 55.5,119.5C 53.1652,118.587 50.9985,117.253 49,115.5C 48.5034,117.81 48.3367,120.143 48.5,122.5C 47.8333,122.5 47.5,122.167 47.5,121.5C 45.4377,119.714 44.1043,117.381 43.5,114.5C 47.0205,113.146 50.3538,113.48 53.5,115.5 Z"/></g>
<g><path style="opacity:1" fill="#3a3628" d="M 84.5,116.5 C 84.8417,117.338 85.5084,117.672 86.5,117.5C 87.0577,118.79 88.0577,119.623 89.5,120C 88.7476,120.671 88.4142,121.504 88.5,122.5C 86.4424,120.004 85.2757,120.67 85,124.5C 84.6174,123.944 84.1174,123.611 83.5,123.5C 82.8333,123.167 82.1667,122.833 81.5,122.5C 80.8333,122.5 80.5,122.167 80.5,121.5C 82.0737,120.016 83.407,118.349 84.5,116.5 Z"/></g>
<g><path style="opacity:1" fill="#1d1913" d="M 94.5,125.5 C 94.1667,125.5 93.8333,125.5 93.5,125.5C 92.1765,124.15 91.1765,124.317 90.5,126C 92.0128,127.879 92.6795,130.046 92.5,132.5C 91.5326,131.194 90.1993,130.527 88.5,130.5C 88.5,127.833 88.5,125.167 88.5,122.5C 88.4142,121.504 88.7476,120.671 89.5,120C 88.0577,119.623 87.0577,118.79 86.5,117.5C 86.5,116.5 86.5,115.5 86.5,114.5C 88.7721,113.559 90.7721,112.226 92.5,110.5C 93.7666,109.913 94.7666,109.913 95.5,110.5C 94.371,112.275 93.371,113.942 92.5,115.5C 93.5,116.333 94.5,117.167 95.5,118C 94.376,118.249 93.376,118.749 92.5,119.5C 93.5,120.833 94.5,122.167 95.5,123.5C 95.1373,124.183 94.8039,124.85 94.5,125.5 Z"/></g>
<g><path style="opacity:1" fill="#2f685f" d="M 55.5,119.5 C 57.7451,118.365 60.0784,117.865 62.5,118C 63.1172,120.277 63.7839,122.444 64.5,124.5C 64.5,124.833 64.5,125.167 64.5,125.5C 64.5,126.833 64.5,128.167 64.5,129.5C 60.1672,129.825 59.5005,131.492 62.5,134.5C 57.7151,135.589 54.7151,133.923 53.5,129.5C 50.6318,127.974 48.9652,125.64 48.5,122.5C 48.3367,120.143 48.5034,117.81 49,115.5C 50.9985,117.253 53.1652,118.587 55.5,119.5 Z"/></g>
<g><path style="opacity:1" fill="#5c2c1f" d="M 78.5,115.5 C 79.0482,117.626 79.7148,119.626 80.5,121.5C 80.5,122.167 80.8333,122.5 81.5,122.5C 80.0474,123.825 80.3808,124.658 82.5,125C 82,125.167 81.5,125.333 81,125.5C 79.6315,124.297 78.1315,123.297 76.5,122.5C 75.0542,123.171 74.3875,124.338 74.5,126C 75.2726,128.268 76.6059,130.101 78.5,131.5C 80.3171,130.233 81.9837,128.9 83.5,127.5C 83.2493,130.909 83.5827,134.242 84.5,137.5C 84.0431,138.298 83.3764,138.631 82.5,138.5C 81.5655,137.432 81.2322,136.099 81.5,134.5C 80.0413,134.433 78.7079,134.766 77.5,135.5C 76.5994,133.273 74.9328,132.273 72.5,132.5C 71.5084,132.672 70.8417,132.338 70.5,131.5C 69.3915,130.71 68.0581,130.21 66.5,130C 65.9011,128.378 65.2344,126.878 64.5,125.5C 64.5,125.167 64.5,124.833 64.5,124.5C 64.5,122.167 64.5,119.833 64.5,117.5C 65.8068,118.153 67.1401,118.82 68.5,119.5C 69.1131,120.98 69.4464,122.313 69.5,123.5C 70.8549,122.812 71.8549,121.812 72.5,120.5C 73.1667,120.167 73.8333,119.833 74.5,119.5C 76.1942,118.473 77.5275,117.139 78.5,115.5 Z"/></g>
<g><path style="opacity:1" fill="#e3e3e3" d="M 200.5,117.5 C 200.5,139.5 200.5,161.5 200.5,183.5C 172.328,183.831 144.328,183.498 116.5,182.5C 130.759,182.396 144.592,182.396 158,182.5C 160.193,181.227 162.36,180.894 164.5,181.5C 166.271,180.965 166.604,180.131 165.5,179C 166.766,178.691 167.933,178.191 169,177.5C 169.669,180.028 170.502,180.028 171.5,177.5C 170.167,176.5 170.167,175.5 171.5,174.5C 169.379,174.46 167.379,173.96 165.5,173C 166.416,172.722 167.082,172.222 167.5,171.5C 174.841,171.666 182.174,171.5 189.5,171C 190.056,170.617 190.389,170.117 190.5,169.5C 191.338,169.158 191.672,168.492 191.5,167.5C 191.5,166.5 191.5,165.5 191.5,164.5C 186.821,164.666 182.155,164.499 177.5,164C 181.486,163.501 185.486,163.334 189.5,163.5C 189.5,162.5 189.5,161.5 189.5,160.5C 182.5,160.5 175.5,160.5 168.5,160.5C 160.5,159.833 152.5,159.167 144.5,158.5C 148.5,158.5 152.5,158.5 156.5,158.5C 156.5,157.5 156.5,156.5 156.5,155.5C 153.15,155.665 149.817,155.498 146.5,155C 147,154.5 147.5,154 148,153.5C 154.383,154.067 160.883,154.067 167.5,153.5C 169.444,154.189 171.444,154.689 173.5,155C 168.511,155.499 163.511,155.666 158.5,155.5C 158.5,156.5 158.5,157.5 158.5,158.5C 170.362,158.686 182.362,158.353 194.5,157.5C 190.058,155.546 185.558,155.213 181,156.5C 178.931,155.736 176.764,155.236 174.5,155C 176.473,154.505 178.473,154.338 180.5,154.5C 180.5,153.5 180.5,152.5 180.5,151.5C 176.757,151.541 176.59,150.874 180,149.5C 182.336,150.292 182.836,151.625 181.5,153.5C 182.5,153.833 183.5,154.167 184.5,154.5C 188.084,153.917 191.751,153.917 195.5,154.5C 195.5,153.5 195.5,152.5 195.5,151.5C 193.833,151.5 192.167,151.5 190.5,151.5C 191.184,149.815 192.517,148.815 194.5,148.5C 195.192,149.025 195.692,149.692 196,150.5C 196.014,148.402 195.847,146.569 195.5,145C 196.981,144.02 198.315,142.853 199.5,141.5C 199.277,140.033 198.944,138.533 198.5,137C 199.15,130.401 199.816,123.901 200.5,117.5 Z"/></g>
<g><path style="opacity:1" fill="#2b2623" d="M 32.5,108.5 C 32.5861,110.677 33.2528,112.677 34.5,114.5C 37.1365,117.373 39.3032,117.039 41,113.5C 41.8952,115.804 42.7285,118.138 43.5,120.5C 44.7362,121.246 46.0695,121.579 47.5,121.5C 47.5,122.167 47.8333,122.5 48.5,122.5C 48.9652,125.64 50.6318,127.974 53.5,129.5C 51.6673,134.829 53.0006,139.162 57.5,142.5C 57.44,143.043 57.1067,143.376 56.5,143.5C 52.5551,140.944 50.7218,137.277 51,132.5C 49.8438,131.007 49.0104,131.174 48.5,133C 50.8454,137.026 50.8454,140.86 48.5,144.5C 46.3001,142.446 44.6334,139.946 43.5,137C 44.9561,136.577 45.4561,135.744 45,134.5C 42.595,133.726 40.095,133.226 37.5,133C 35.3464,130.335 33.3464,127.501 31.5,124.5C 31.723,123.033 32.0563,121.533 32.5,120C 31.4071,118.635 30.0738,118.301 28.5,119C 29.7596,120.814 29.7596,122.647 28.5,124.5C 27.8891,121.573 26.5558,119.24 24.5,117.5C 25.5,116.167 26.5,114.833 27.5,113.5C 28.806,111.527 30.4727,109.861 32.5,108.5 Z"/></g>
<g><path style="opacity:1" fill="#351c14" d="M 81.5,122.5 C 82.1667,122.833 82.8333,123.167 83.5,123.5C 83.5,124.833 83.5,126.167 83.5,127.5C 81.9837,128.9 80.3171,130.233 78.5,131.5C 76.6059,130.101 75.2726,128.268 74.5,126C 74.3875,124.338 75.0542,123.171 76.5,122.5C 78.1315,123.297 79.6315,124.297 81,125.5C 81.5,125.333 82,125.167 82.5,125C 80.3808,124.658 80.0474,123.825 81.5,122.5 Z"/></g>
<g><path style="opacity:1" fill="#1e1f1d" d="M 20.5,105.5 C 21.1667,105.5 21.8333,105.5 22.5,105.5C 23.791,105.263 24.791,105.596 25.5,106.5C 24.4262,109.959 23.4262,113.459 22.5,117C 23.0311,118.718 23.6977,118.885 24.5,117.5C 26.5558,119.24 27.8891,121.573 28.5,124.5C 29.7596,122.647 29.7596,120.814 28.5,119C 30.0738,118.301 31.4071,118.635 32.5,120C 32.0563,121.533 31.723,123.033 31.5,124.5C 33.3464,127.501 35.3464,130.335 37.5,133C 40.095,133.226 42.595,133.726 45,134.5C 45.4561,135.744 44.9561,136.577 43.5,137C 44.6334,139.946 46.3001,142.446 48.5,144.5C 46.8297,144.751 45.3297,145.418 44,146.5C 42.9614,145.756 42.4614,144.756 42.5,143.5C 43.4731,141.932 43.6397,140.265 43,138.5C 40.6614,137.443 38.4948,136.11 36.5,134.5C 35.8165,134.863 35.1499,135.196 34.5,135.5C 32.7179,134.28 30.7179,133.614 28.5,133.5C 28.5,132.5 28.5,131.5 28.5,130.5C 25.9009,130.451 23.7342,129.451 22,127.5C 22.1343,129.189 22.6343,130.856 23.5,132.5C 22.2921,131.766 20.9587,131.433 19.5,131.5C 19.4867,137.091 20.4867,142.424 22.5,147.5C 20.6652,148.428 20.3318,149.594 21.5,151C 17.56,151.777 14.06,153.943 11,157.5C 10.5078,158.549 10.6744,159.549 11.5,160.5C 10.1667,161.833 8.83333,163.167 7.5,164.5C 8.37511,166.773 10.0418,167.773 12.5,167.5C 12.3398,165.801 12.5065,164.134 13,162.5C 13.0891,165.849 14.2557,166.349 16.5,164C 15.1379,161.966 14.1379,159.799 13.5,157.5C 17.0244,157.881 20.3577,158.881 23.5,160.5C 21.883,163.28 20.7163,166.28 20,169.5C 19.2825,168.549 18.4491,168.383 17.5,169C 18.4817,171.738 19.1484,174.572 19.5,177.5C 16.5133,177.422 15.8466,178.589 17.5,181C 16.9777,181.95 16.311,182.784 15.5,183.5C 18.307,184.474 20.307,186.308 21.5,189C 20.0868,192.037 18.9202,195.204 18,198.5C 17.586,198.957 17.086,199.291 16.5,199.5C 15.6667,198.5 14.8333,197.5 14,196.5C 13.6667,197.167 13.3333,197.833 13,198.5C 11.414,197.624 9.91399,196.624 8.5,195.5C 7.54811,197.045 7.21478,198.712 7.5,200.5C 5.96106,201.767 4.29439,202.767 2.5,203.5C 1.39105,203.443 0.391047,203.11 -0.5,202.5C -0.5,197.5 -0.5,192.5 -0.5,187.5C 0.0738181,191.164 0.907151,194.831 2,198.5C 3.66667,197.167 5.33333,195.833 7,194.5C 6.89533,179.911 6.89533,165.244 7,150.5C 8.1223,148.58 8.95564,146.58 9.5,144.5C 12.0248,145.64 14.6915,146.307 17.5,146.5C 17.2924,144.08 17.6258,141.747 18.5,139.5C 17.8562,135.988 16.0228,134.988 13,136.5C 11.6667,135.833 10.3333,135.167 9,134.5C 8.05456,134.905 7.38789,135.572 7,136.5C 6.50019,126.506 6.33352,116.506 6.5,106.5C 9.08468,107.072 11.7513,107.239 14.5,107C 13.0439,107.423 12.5439,108.256 13,109.5C 14.7106,112.58 17.2106,113.746 20.5,113C 19.6433,112.311 18.9767,111.478 18.5,110.5C 20.0049,109.158 20.6715,107.492 20.5,105.5 Z"/></g>
<g><path style="opacity:1" fill="#253b3b" d="M 53.5,129.5 C 54.7151,133.923 57.7151,135.589 62.5,134.5C 62.7214,135.735 63.3881,136.735 64.5,137.5C 64.0431,138.298 63.3764,138.631 62.5,138.5C 61.5655,139.568 61.2322,140.901 61.5,142.5C 59.8612,142.074 58.5279,142.074 57.5,142.5C 53.0006,139.162 51.6673,134.829 53.5,129.5 Z"/></g>
<g><path style="opacity:1" fill="#234041" d="M 34.5,135.5 C 34.5,136.167 34.5,136.833 34.5,137.5C 32.2151,136.454 29.8817,136.454 27.5,137.5C 27.5,138.833 27.5,140.167 27.5,141.5C 26.5,141.5 25.5,141.5 24.5,141.5C 23.6371,137.838 24.9704,135.672 28.5,135C 26.5483,134.634 24.8816,133.801 23.5,132.5C 22.6343,130.856 22.1343,129.189 22,127.5C 23.7342,129.451 25.9009,130.451 28.5,130.5C 28.5,131.5 28.5,132.5 28.5,133.5C 30.7179,133.614 32.7179,134.28 34.5,135.5 Z"/></g>
<g><path style="opacity:1" fill="#456a61" d="M 70.5,131.5 C 70.8417,132.338 71.5084,132.672 72.5,132.5C 72.9175,133.222 73.5842,133.722 74.5,134C 72.2369,135.358 70.0702,136.858 68,138.5C 64.7824,135.119 65.6157,132.785 70.5,131.5 Z"/></g>
<g><path style="opacity:1" fill="#674636" d="M 64.5,125.5 C 65.2344,126.878 65.9011,128.378 66.5,130C 68.0581,130.21 69.3915,130.71 70.5,131.5C 65.6157,132.785 64.7824,135.119 68,138.5C 70.0702,136.858 72.2369,135.358 74.5,134C 73.5842,133.722 72.9175,133.222 72.5,132.5C 74.9328,132.273 76.5994,133.273 77.5,135.5C 74.9078,136.66 73.2411,138.66 72.5,141.5C 70.8212,141.285 69.8212,141.952 69.5,143.5C 66.8349,142.148 64.5016,140.482 62.5,138.5C 63.3764,138.631 64.0431,138.298 64.5,137.5C 63.3881,136.735 62.7214,135.735 62.5,134.5C 59.5005,131.492 60.1672,129.825 64.5,129.5C 64.5,128.167 64.5,126.833 64.5,125.5 Z"/></g>
<g><path style="opacity:1" fill="#8a422a" d="M 82.5,138.5 C 82.5,139.167 82.5,139.833 82.5,140.5C 79.3892,138.398 76.3892,138.732 73.5,141.5C 73.1667,141.5 72.8333,141.5 72.5,141.5C 73.2411,138.66 74.9078,136.66 77.5,135.5C 78.7079,134.766 80.0413,134.433 81.5,134.5C 81.2322,136.099 81.5655,137.432 82.5,138.5 Z"/></g>
<g><path style="opacity:1" fill="#5f3e36" d="M 42.5,143.5 C 41.5,143.5 40.5,143.5 39.5,143.5C 39.4802,141.857 40.1468,140.524 41.5,139.5C 39.4844,138.306 37.4844,138.306 35.5,139.5C 35.1667,138.833 34.8333,138.167 34.5,137.5C 34.5,136.833 34.5,136.167 34.5,135.5C 35.1499,135.196 35.8165,134.863 36.5,134.5C 38.4948,136.11 40.6614,137.443 43,138.5C 43.6397,140.265 43.4731,141.932 42.5,143.5 Z"/></g>
<g><path style="opacity:1" fill="#3a433d" d="M 100.5,111.5 C 100.842,110.662 101.508,110.328 102.5,110.5C 103.833,122.167 103.833,133.833 102.5,145.5C 101.057,146.335 100.057,147.668 99.5,149.5C 98.5832,148.873 97.5832,148.539 96.5,148.5C 97.2309,146.401 97.2309,144.401 96.5,142.5C 93.651,141.825 91.651,140.158 90.5,137.5C 88.1658,138.841 86.4991,138.174 85.5,135.5C 88.7848,134.676 92.1182,134.176 95.5,134C 95.8333,133.667 96.1667,133.333 96.5,133C 94.9813,133.331 93.648,133.164 92.5,132.5C 92.6795,130.046 92.0128,127.879 90.5,126C 91.1765,124.317 92.1765,124.15 93.5,125.5C 93.5,127.5 93.5,129.5 93.5,131.5C 96.806,131.181 99.4726,129.847 101.5,127.5C 102.164,125.022 102.497,122.355 102.5,119.5C 102.478,116.41 101.812,113.743 100.5,111.5 Z"/></g>
<g><path style="opacity:1" fill="#406d59" d="M 93.5,125.5 C 93.8333,125.5 94.1667,125.5 94.5,125.5C 96.5273,125.338 98.5273,125.505 100.5,126C 101.056,126.383 101.389,126.883 101.5,127.5C 99.4726,129.847 96.806,131.181 93.5,131.5C 93.5,129.5 93.5,127.5 93.5,125.5 Z"/></g>
<g><path style="opacity:1" fill="#754b3a" d="M 88.5,122.5 C 88.5,125.167 88.5,127.833 88.5,130.5C 90.1993,130.527 91.5326,131.194 92.5,132.5C 93.648,133.164 94.9813,133.331 96.5,133C 96.1667,133.333 95.8333,133.667 95.5,134C 92.1182,134.176 88.7848,134.676 85.5,135.5C 86.4991,138.174 88.1658,138.841 90.5,137.5C 91.651,140.158 93.651,141.825 96.5,142.5C 97.2309,144.401 97.2309,146.401 96.5,148.5C 94.3066,149.797 91.9732,149.797 89.5,148.5C 91.289,147.377 91.6224,146.044 90.5,144.5C 86.9302,145.294 84.2635,143.961 82.5,140.5C 82.5,139.833 82.5,139.167 82.5,138.5C 83.3764,138.631 84.0431,138.298 84.5,137.5C 83.5827,134.242 83.2493,130.909 83.5,127.5C 83.5,126.167 83.5,124.833 83.5,123.5C 84.1174,123.611 84.6174,123.944 85,124.5C 85.2757,120.67 86.4424,120.004 88.5,122.5 Z"/></g>
<g><path style="opacity:1" fill="#3e302e" d="M 57.5,142.5 C 58.5279,142.074 59.8612,142.074 61.5,142.5C 61.2322,140.901 61.5655,139.568 62.5,138.5C 64.5016,140.482 66.8349,142.148 69.5,143.5C 68.9094,144.151 68.2427,144.818 67.5,145.5C 70.2769,147.179 72.9436,148.845 75.5,150.5C 73.7836,154.523 72.2836,158.856 71,163.5C 68.756,159.725 66.9227,159.725 65.5,163.5C 62.7633,159.527 59.5966,155.861 56,152.5C 53.5383,153.811 51.0383,154.811 48.5,155.5C 45.9693,158.379 44.9693,157.712 45.5,153.5C 44.0695,153.579 42.7362,153.246 41.5,152.5C 40.8182,153.243 40.1515,153.909 39.5,154.5C 39.5666,149.098 38.2333,144.098 35.5,139.5C 37.4844,138.306 39.4844,138.306 41.5,139.5C 40.1468,140.524 39.4802,141.857 39.5,143.5C 40.5,143.5 41.5,143.5 42.5,143.5C 42.4614,144.756 42.9614,145.756 44,146.5C 45.3297,145.418 46.8297,144.751 48.5,144.5C 50.8454,140.86 50.8454,137.026 48.5,133C 49.0104,131.174 49.8438,131.007 51,132.5C 50.7218,137.277 52.5551,140.944 56.5,143.5C 57.1067,143.376 57.44,143.043 57.5,142.5 Z"/></g>
<g><path style="opacity:1" fill="#353e3f" d="M 72.5,141.5 C 72.8333,141.5 73.1667,141.5 73.5,141.5C 75.48,142.474 77.1467,143.807 78.5,145.5C 77.7375,146.268 76.7375,146.768 75.5,147C 78.2447,150.734 79.9114,154.901 80.5,159.5C 79.5,159.5 78.5,159.5 77.5,159.5C 77.7896,156.215 77.123,153.215 75.5,150.5C 72.9436,148.845 70.2769,147.179 67.5,145.5C 68.2427,144.818 68.9094,144.151 69.5,143.5C 69.8212,141.952 70.8212,141.285 72.5,141.5 Z"/></g>
<g><path style="opacity:0.061" fill="#000000" d="M 255.5,153.5 C 258.108,155.103 260.441,157.103 262.5,159.5C 261.223,160.922 261.557,161.922 263.5,162.5C 263.5,172.5 263.5,182.5 263.5,192.5C 256.576,194.712 249.576,195.712 242.5,195.5C 234.667,196.76 226.834,197.76 219,198.5C 218.259,197.359 217.425,197.359 216.5,198.5C 214.998,194.626 214.331,194.959 214.5,199.5C 213.521,196.375 213.187,193.042 213.5,189.5C 213.173,179.652 213.506,169.986 214.5,160.5C 214.833,180.5 215.167,180.5 215.5,160.5C 222.254,158.615 229.254,156.948 236.5,155.5C 238.926,155.404 241.093,156.07 243,157.5C 244.586,154.866 246.92,153.199 250,152.5C 251.154,154.957 252.488,154.957 254,152.5C 254.383,153.056 254.883,153.389 255.5,153.5 Z"/></g>
<g><path style="opacity:0.004" fill="#000000" d="M 255.5,152.5 C 256.833,153.167 256.833,153.167 255.5,152.5 Z"/></g>
<g><path style="opacity:1" fill="#5b4439" d="M 82.5,140.5 C 84.2635,143.961 86.9302,145.294 90.5,144.5C 91.6224,146.044 91.289,147.377 89.5,148.5C 91.9732,149.797 94.3066,149.797 96.5,148.5C 97.5832,148.539 98.5832,148.873 99.5,149.5C 100.057,147.668 101.057,146.335 102.5,145.5C 102.397,148.636 101.397,151.302 99.5,153.5C 96.8774,151.735 93.8774,151.068 90.5,151.5C 90.7163,153.681 89.883,155.347 88,156.5C 87.3162,155.216 87.4829,154.049 88.5,153C 85.0586,150.577 81.7253,148.077 78.5,145.5C 77.1467,143.807 75.48,142.474 73.5,141.5C 76.3892,138.732 79.3892,138.398 82.5,140.5 Z"/></g>
<g><path style="opacity:1" fill="#3f2722" d="M 78.5,145.5 C 81.7253,148.077 85.0586,150.577 88.5,153C 87.4829,154.049 87.3162,155.216 88,156.5C 89.883,155.347 90.7163,153.681 90.5,151.5C 93.8774,151.068 96.8774,151.735 99.5,153.5C 98.6285,156.272 98.6285,158.938 99.5,161.5C 101.179,161.285 102.179,161.952 102.5,163.5C 101.167,163.833 99.8333,164.167 98.5,164.5C 97.791,163.596 96.791,163.263 95.5,163.5C 95.2291,165.38 95.8958,166.713 97.5,167.5C 98.7569,169.368 98.4236,171.035 96.5,172.5C 97.6313,173.604 98.4646,173.271 99,171.5C 100.939,173.46 100.439,174.793 97.5,175.5C 95.5878,173.844 93.5878,173.511 91.5,174.5C 91.7093,175.086 92.0426,175.586 92.5,176C 91.0654,175.689 89.7321,175.855 88.5,176.5C 87.4805,175.313 86.3139,174.313 85,173.5C 84.3937,176.093 82.8937,177.76 80.5,178.5C 79.8333,178.167 79.1667,177.833 78.5,177.5C 79.8303,174.151 79.3303,173.818 77,176.5C 76.3333,175.833 76.3333,175.167 77,174.5C 80.4492,172.713 83.6159,170.546 86.5,168C 86.2533,166.187 85.92,164.353 85.5,162.5C 82.9664,163.349 81.2997,162.349 80.5,159.5C 79.9114,154.901 78.2447,150.734 75.5,147C 76.7375,146.768 77.7375,146.268 78.5,145.5 Z"/></g>
<g><path style="opacity:1" fill="#bfbfbf" d="M 190.5,151.5 C 192.167,151.5 193.833,151.5 195.5,151.5C 195.5,152.5 195.5,153.5 195.5,154.5C 191.751,153.917 188.084,153.917 184.5,154.5C 183.5,154.167 182.5,153.833 181.5,153.5C 182.836,151.625 182.336,150.292 180,149.5C 176.59,150.874 176.757,151.541 180.5,151.5C 180.5,152.5 180.5,153.5 180.5,154.5C 178.473,154.338 176.473,154.505 174.5,155C 176.764,155.236 178.931,155.736 181,156.5C 185.558,155.213 190.058,155.546 194.5,157.5C 182.362,158.353 170.362,158.686 158.5,158.5C 158.5,157.5 158.5,156.5 158.5,155.5C 163.511,155.666 168.511,155.499 173.5,155C 171.444,154.689 169.444,154.189 167.5,153.5C 160.883,154.067 154.383,154.067 148,153.5C 147.5,154 147,154.5 146.5,155C 149.817,155.498 153.15,155.665 156.5,155.5C 156.5,156.5 156.5,157.5 156.5,158.5C 152.5,158.5 148.5,158.5 144.5,158.5C 142.952,158.179 142.285,157.179 142.5,155.5C 139.571,154.298 139.237,154.298 141.5,155.5C 141.5,156.5 141.5,157.5 141.5,158.5C 135.087,158.555 128.92,158.888 123,159.5C 122.51,158.207 122.343,156.873 122.5,155.5C 125.518,155.665 128.518,155.498 131.5,155C 128.331,154.193 125.331,153.36 122.5,152.5C 125.373,152.284 128.373,152.284 131.5,152.5C 132.167,152.167 132.833,151.833 133.5,151.5C 133.167,151.167 132.833,150.833 132.5,150.5C 129.17,149.906 125.836,149.24 122.5,148.5C 123.025,147.808 123.692,147.308 124.5,147C 129.167,146.667 133.833,146.333 138.5,146C 136.423,145.808 134.423,145.308 132.5,144.5C 134.695,143.231 136.861,143.231 139,144.5C 142.402,143.211 146.069,142.544 150,142.5C 161.025,142.861 172.192,142.861 183.5,142.5C 183.5,143.5 183.5,144.5 183.5,145.5C 180.552,145.777 177.719,145.444 175,144.5C 174.301,146.074 174.635,147.407 176,148.5C 179.466,147.798 182.966,147.131 186.5,146.5C 187.386,147.325 187.719,148.325 187.5,149.5C 185.897,149.312 184.563,149.812 183.5,151C 185.81,151.497 188.143,151.663 190.5,151.5 Z"/></g>
<g><path style="opacity:1" fill="#7d1f2a" d="M 65.5,163.5 C 66.6857,164.961 66.6857,166.295 65.5,167.5C 62.4503,168.077 60.4503,166.91 59.5,164C 57.7525,163.648 56.0858,163.148 54.5,162.5C 54.1667,160.5 53.8333,158.5 53.5,156.5C 52.0413,156.567 50.7079,156.234 49.5,155.5C 49.1667,155.5 48.8333,155.5 48.5,155.5C 51.0383,154.811 53.5383,153.811 56,152.5C 59.5966,155.861 62.7633,159.527 65.5,163.5 Z"/></g>
<g><path style="opacity:1" fill="#602829" d="M 49.5,155.5 C 50.7079,156.234 52.0413,156.567 53.5,156.5C 53.8333,158.5 54.1667,160.5 54.5,162.5C 52.5318,165.502 49.8652,166.168 46.5,164.5C 44.9479,162.065 45.2812,160.065 47.5,158.5C 47.62,159.586 48.2867,160.253 49.5,160.5C 50.1667,160.167 50.8333,159.833 51.5,159.5C 50.675,158.614 49.675,158.281 48.5,158.5C 49.1098,157.609 49.4431,156.609 49.5,155.5 Z"/></g>
<g><path style="opacity:1" fill="#c5192e" d="M 47.5,158.5 C 47.8333,158.5 48.1667,158.5 48.5,158.5C 49.675,158.281 50.675,158.614 51.5,159.5C 50.8333,159.833 50.1667,160.167 49.5,160.5C 48.2867,160.253 47.62,159.586 47.5,158.5 Z"/></g>
<g><path style="opacity:1" fill="#bbbbbb" d="M 168.5,160.5 C 175.5,160.5 182.5,160.5 189.5,160.5C 189.5,161.5 189.5,162.5 189.5,163.5C 185.486,163.334 181.486,163.501 177.5,164C 182.155,164.499 186.821,164.666 191.5,164.5C 191.5,165.5 191.5,166.5 191.5,167.5C 187.154,167.666 182.821,167.499 178.5,167C 178,166.5 177.5,166 177,165.5C 174.478,167.662 171.645,167.995 168.5,166.5C 171.144,165.604 173.81,164.771 176.5,164C 171.776,163.112 167.443,162.278 163.5,161.5C 165.045,160.548 166.712,160.215 168.5,160.5 Z"/></g>
<g><path style="opacity:1" fill="#3f3f43" d="M 214.5,158.5 C 214.5,159.167 214.5,159.833 214.5,160.5C 213.506,169.986 213.173,179.652 213.5,189.5C 212.756,192.36 212.089,195.36 211.5,198.5C 212.691,201.978 211.691,204.811 208.5,207C 188.841,207.637 174.508,207.47 165.5,206.5C 165.286,204.856 165.62,203.356 166.5,202C 165.833,201.667 165.167,201.333 164.5,201C 166.192,199.599 166.859,197.766 166.5,195.5C 162.826,194.958 159.159,194.625 155.5,194.5C 156.09,193.201 157.09,192.368 158.5,192C 157.328,191.581 156.328,190.915 155.5,190C 157.676,189.837 159.509,189.004 161,187.5C 161.414,187.957 161.914,188.291 162.5,188.5C 164.115,187.846 165.782,187.346 167.5,187C 158.533,185.894 149.533,185.394 140.5,185.5C 131.983,185.826 123.65,185.493 115.5,184.5C 134.833,184.5 154.167,184.5 173.5,184.5C 182.986,185.494 192.652,185.827 202.5,185.5C 202.5,174.167 202.5,162.833 202.5,151.5C 203.893,147.054 204.893,142.388 205.5,137.5C 208.041,135.449 209.541,132.783 210,129.5C 210.333,134.833 210.667,140.167 211,145.5C 211.511,143.122 212.178,140.788 213,138.5C 213.172,145.346 213.672,152.013 214.5,158.5 Z"/></g>
<g><path style="opacity:1" fill="#686a6c" d="M 201.5,68.5 C 201.833,68.5 202.167,68.5 202.5,68.5C 202.5,96.1667 202.5,123.833 202.5,151.5C 202.5,162.833 202.5,174.167 202.5,185.5C 192.652,185.827 182.986,185.494 173.5,184.5C 182.833,184.5 192.167,184.5 201.5,184.5C 201.5,145.833 201.5,107.167 201.5,68.5 Z"/></g>
<g><path style="opacity:1" fill="#ababab" d="M 190.5,169.5 C 190.389,170.117 190.056,170.617 189.5,171C 182.174,171.5 174.841,171.666 167.5,171.5C 166.624,171.631 165.957,171.298 165.5,170.5C 169.333,170.167 173.167,169.833 177,169.5C 181.745,169.087 186.245,169.087 190.5,169.5 Z"/></g>
<g><path style="opacity:1" fill="#bbbbbb" d="M 132.5,159.5 C 135.518,159.335 138.518,159.502 141.5,160C 142.973,160.71 143.64,161.876 143.5,163.5C 140.482,163.335 137.482,163.502 134.5,164C 136.218,164.346 137.885,164.846 139.5,165.5C 146.108,164.538 152.774,164.205 159.5,164.5C 159.5,165.5 159.5,166.5 159.5,167.5C 155.361,166.441 151.361,166.607 147.5,168C 151.5,168.333 155.5,168.667 159.5,169C 159.957,169.414 160.291,169.914 160.5,170.5C 156.001,171.249 151.501,171.916 147,172.5C 128.519,170.075 128.352,168.575 146.5,168C 139.988,167.33 133.655,166.83 127.5,166.5C 126.204,164.421 124.538,162.754 122.5,161.5C 125.428,160.516 128.428,160.183 131.5,160.5C 131.5,161.5 131.5,162.5 131.5,163.5C 126.5,164.003 126.833,164.336 132.5,164.5C 132.5,162.833 132.5,161.167 132.5,159.5 Z"/></g>
<g><path style="opacity:1" fill="#342724" d="M 48.5,155.5 C 48.8333,155.5 49.1667,155.5 49.5,155.5C 49.4431,156.609 49.1098,157.609 48.5,158.5C 48.1667,158.5 47.8333,158.5 47.5,158.5C 45.2812,160.065 44.9479,162.065 46.5,164.5C 49.8652,166.168 52.5318,165.502 54.5,162.5C 56.0858,163.148 57.7525,163.648 59.5,164C 60.4503,166.91 62.4503,168.077 65.5,167.5C 66.4793,170.157 68.146,170.823 70.5,169.5C 69.5,168.667 68.5,167.833 67.5,167C 69.7801,166.297 71.7801,165.131 73.5,163.5C 74.3184,165.108 74.9851,166.775 75.5,168.5C 72.4778,169.004 71.3111,170.671 72,173.5C 73.0812,171.233 74.5812,171.066 76.5,173C 75.2625,173.232 74.2625,173.732 73.5,174.5C 71.5012,175.857 70.3345,175.19 70,172.5C 69.0975,173.701 67.9308,174.535 66.5,175C 68.1044,176.237 69.771,177.403 71.5,178.5C 70.0186,179.48 68.6853,180.647 67.5,182C 68.056,182.383 68.3893,182.883 68.5,183.5C 66.8235,184.183 66.1568,185.517 66.5,187.5C 63.858,187.488 62.5246,188.821 62.5,191.5C 61.609,192.11 60.609,192.443 59.5,192.5C 58.9522,190.468 57.6188,189.468 55.5,189.5C 54.7222,188.844 54.0556,188.011 53.5,187C 53.5699,186.235 53.9033,185.735 54.5,185.5C 54.369,186.239 54.5357,186.906 55,187.5C 55.7083,186.619 56.5416,185.953 57.5,185.5C 57.4346,185.938 57.6012,186.272 58,186.5C 58.5954,182.918 59.9288,182.584 62,185.5C 62.7504,184.874 63.5838,184.374 64.5,184C 62.393,182.736 61.393,180.903 61.5,178.5C 59.4357,178.313 57.4357,177.813 55.5,177C 56.8882,176.111 56.7215,175.611 55,175.5C 53.2509,175.748 52.4176,176.748 52.5,178.5C 50.4816,177.377 48.4816,177.377 46.5,178.5C 45.7702,177.066 44.7702,175.9 43.5,175C 45.4506,173.266 46.4506,171.099 46.5,168.5C 44.8561,168.714 43.3561,168.38 42,167.5C 41.6258,168.416 41.1258,169.25 40.5,170C 38.5273,170.495 36.5273,170.662 34.5,170.5C 34.3677,167.43 34.701,164.43 35.5,161.5C 35.9623,160.12 36.9623,159.453 38.5,159.5C 39.7859,159.852 40.6192,160.518 41,161.5C 41.772,161.355 42.4387,161.022 43,160.5C 42.4902,158.62 42.6569,156.787 43.5,155C 42.2575,154.689 41.2575,155.189 40.5,156.5C 39.7025,156.043 39.3691,155.376 39.5,154.5C 40.1515,153.909 40.8182,153.243 41.5,152.5C 42.7362,153.246 44.0695,153.579 45.5,153.5C 44.9693,157.712 45.9693,158.379 48.5,155.5 Z"/></g>
<g><path style="opacity:1" fill="#2e3033" d="M 114.5,134.5 C 114.77,148.863 114.27,163.196 113,177.5C 112,180.167 111,180.167 110,177.5C 108.403,180.292 107.403,183.292 107,186.5C 106.851,182.867 106.018,179.534 104.5,176.5C 104.333,162.496 104.5,148.496 105,134.5C 105.912,138.795 106.579,143.128 107,147.5C 108.684,145.649 110.517,143.982 112.5,142.5C 113.168,139.694 113.834,137.028 114.5,134.5 Z"/></g>
<g><path style="opacity:0.98" fill="#303533" d="M -0.5,101.5 C -0.0602941,103.844 0.939706,105.844 2.5,107.5C 2.33418,112.179 2.50085,116.845 3,121.5C 3.33333,121.167 3.66667,120.833 4,120.5C 4.81632,115.316 4.64966,110.316 3.5,105.5C 3.36899,104.761 3.53566,104.094 4,103.5C 4.67076,104.252 5.5041,104.586 6.5,104.5C 6.5,105.167 6.5,105.833 6.5,106.5C 6.33352,116.506 6.50019,126.506 7,136.5C 7.38789,135.572 8.05456,134.905 9,134.5C 10.3333,135.167 11.6667,135.833 13,136.5C 16.0228,134.988 17.8562,135.988 18.5,139.5C 17.6258,141.747 17.2924,144.08 17.5,146.5C 14.6915,146.307 12.0248,145.64 9.5,144.5C 8.95564,146.58 8.1223,148.58 7,150.5C 6.89533,165.244 6.89533,179.911 7,194.5C 5.33333,195.833 3.66667,197.167 2,198.5C 0.907151,194.831 0.0738181,191.164 -0.5,187.5C -0.5,158.833 -0.5,130.167 -0.5,101.5 Z"/></g>
<g><path style="opacity:1" fill="#252422" d="M 3.5,105.5 C 4.64966,110.316 4.81632,115.316 4,120.5C 3.66667,120.833 3.33333,121.167 3,121.5C 2.50085,116.845 2.33418,112.179 2.5,107.5C 2.83333,106.833 3.16667,106.167 3.5,105.5 Z"/></g>
<g><path style="opacity:1" fill="#232426" d="M 115.5,67.5 C 115.5,67.8333 115.5,68.1667 115.5,68.5C 115.5,107.167 115.5,145.833 115.5,184.5C 123.65,185.493 131.983,185.826 140.5,185.5C 141.609,186.29 142.942,186.79 144.5,187C 142.744,187.202 141.078,187.702 139.5,188.5C 141.946,189.427 142.779,191.094 142,193.5C 140.703,192.216 139.536,192.383 138.5,194C 138.665,195.117 138.998,196.284 139.5,197.5C 138.573,198.906 137.573,200.406 136.5,202C 137.167,202.667 137.833,203.333 138.5,204C 137.33,205.755 135.663,206.755 133.5,207C 151.651,207.976 169.651,208.81 187.5,209.5C 160.862,210.746 134.196,210.58 107.5,209C 106.016,208.338 104.683,207.504 103.5,206.5C 103.5,205.833 103.5,205.167 103.5,204.5C 104.494,195.348 104.827,186.015 104.5,176.5C 106.018,179.534 106.851,182.867 107,186.5C 107.403,183.292 108.403,180.292 110,177.5C 111,180.167 112,180.167 113,177.5C 114.27,163.196 114.77,148.863 114.5,134.5C 114.5,112.5 114.5,90.5 114.5,68.5C 114.5,67.8333 114.833,67.5 115.5,67.5 Z"/></g>
<g><path style="opacity:1" fill="#532525" d="M 75.5,150.5 C 77.123,153.215 77.7896,156.215 77.5,159.5C 78.5,159.5 79.5,159.5 80.5,159.5C 81.2997,162.349 82.9664,163.349 85.5,162.5C 85.92,164.353 86.2533,166.187 86.5,168C 83.6159,170.546 80.4492,172.713 77,174.5C 76.3333,175.167 76.3333,175.833 77,176.5C 79.3303,173.818 79.8303,174.151 78.5,177.5C 79.1667,177.833 79.8333,178.167 80.5,178.5C 82.8937,177.76 84.3937,176.093 85,173.5C 86.3139,174.313 87.4805,175.313 88.5,176.5C 89.7321,175.855 91.0654,175.689 92.5,176C 92.0426,175.586 91.7093,175.086 91.5,174.5C 93.5878,173.511 95.5878,173.844 97.5,175.5C 100.439,174.793 100.939,173.46 99,171.5C 98.4646,173.271 97.6313,173.604 96.5,172.5C 98.4236,171.035 98.7569,169.368 97.5,167.5C 102.452,167.81 102.786,166.81 98.5,164.5C 99.8333,164.167 101.167,163.833 102.5,163.5C 102.5,164.5 102.5,165.5 102.5,166.5C 102.829,172.537 102.496,178.537 101.5,184.5C 100.565,181.898 98.8982,179.898 96.5,178.5C 94.8259,181.254 93.1592,181.587 91.5,179.5C 90.5224,179.977 89.6891,180.643 89,181.5C 85.1485,179.77 80.9818,178.937 76.5,179C 75.252,177.6 74.252,176.1 73.5,174.5C 74.2625,173.732 75.2625,173.232 76.5,173C 74.5812,171.066 73.0812,171.233 72,173.5C 71.3111,170.671 72.4778,169.004 75.5,168.5C 74.9851,166.775 74.3184,165.108 73.5,163.5C 71.7801,165.131 69.7801,166.297 67.5,167C 68.5,167.833 69.5,168.667 70.5,169.5C 68.146,170.823 66.4793,170.157 65.5,167.5C 66.6857,166.295 66.6857,164.961 65.5,163.5C 66.9227,159.725 68.756,159.725 71,163.5C 72.2836,158.856 73.7836,154.523 75.5,150.5 Z"/></g>
<g><path style="opacity:1" fill="#963229" d="M 98.5,164.5 C 102.786,166.81 102.452,167.81 97.5,167.5C 95.8958,166.713 95.2291,165.38 95.5,163.5C 96.791,163.263 97.791,163.596 98.5,164.5 Z"/></g>
<g><path style="opacity:1" fill="#2b3332" d="M 35.5,161.5 C 34.701,164.43 34.3677,167.43 34.5,170.5C 36.5273,170.662 38.5273,170.495 40.5,170C 41.1258,169.25 41.6258,168.416 42,167.5C 43.3561,168.38 44.8561,168.714 46.5,168.5C 46.4506,171.099 45.4506,173.266 43.5,175C 44.7702,175.9 45.7702,177.066 46.5,178.5C 48.4816,177.377 50.4816,177.377 52.5,178.5C 52.3505,179.552 52.5172,180.552 53,181.5C 53.8928,180.289 54.7261,180.289 55.5,181.5C 54.8333,182.167 54.1667,182.833 53.5,183.5C 53.6236,184.107 53.9569,184.44 54.5,184.5C 54.5,184.833 54.5,185.167 54.5,185.5C 53.9033,185.735 53.5699,186.235 53.5,187C 54.0556,188.011 54.7222,188.844 55.5,189.5C 52.8431,189.838 50.5098,189.171 48.5,187.5C 47.3554,188.776 47.3554,190.109 48.5,191.5C 47.9953,192.919 46.9953,193.585 45.5,193.5C 45.6716,192.508 45.3382,191.842 44.5,191.5C 43.2225,190.251 42.2225,188.751 41.5,187C 43.1667,186.667 44.8333,186.333 46.5,186C 45.2986,185.097 44.4652,183.931 44,182.5C 42.3091,185.131 41.1424,184.797 40.5,181.5C 39.8333,182.167 39.1667,182.833 38.5,183.5C 37.6751,181.64 36.6751,179.974 35.5,178.5C 35.1961,177.85 34.8627,177.183 34.5,176.5C 35.7287,175.719 37.062,175.219 38.5,175C 36.8904,173.505 35.2237,173.339 33.5,174.5C 32.52,171.914 32.1866,169.247 32.5,166.5C 33.0652,164.58 34.0652,162.913 35.5,161.5 Z"/></g>
<g><path style="opacity:1" fill="#2b1e1a" d="M 102.5,166.5 C 103.495,177.988 103.828,189.655 103.5,201.5C 101.562,198.557 99.2286,195.89 96.5,193.5C 96.5018,195.741 96.1684,198.074 95.5,200.5C 94.1667,199.833 92.8333,199.167 91.5,198.5C 87.1516,201.68 82.3183,202.346 77,200.5C 75.0924,201.454 73.0924,202.121 71,202.5C 66.995,202.008 63.1616,201.341 59.5,200.5C 58.596,199.791 58.2627,198.791 58.5,197.5C 59.5,197.5 60.5,197.5 61.5,197.5C 61.33,196.178 61.6634,195.011 62.5,194C 61.2625,193.768 60.2625,193.268 59.5,192.5C 60.609,192.443 61.609,192.11 62.5,191.5C 64.136,192.246 65.8027,191.912 67.5,190.5C 68.7691,192.695 68.7691,194.861 67.5,197C 69.74,197.977 72.0733,198.477 74.5,198.5C 74.281,197.325 74.6143,196.325 75.5,195.5C 76.853,196.685 78.0197,198.019 79,199.5C 79.5738,195.715 80.2404,192.048 81,188.5C 80.6667,188.167 80.3333,187.833 80,187.5C 77.3176,190.35 74.4843,193.016 71.5,195.5C 70.9278,193.083 69.9278,190.916 68.5,189C 69.1667,187.667 69.8333,186.333 70.5,185C 69.9558,184.283 69.2891,183.783 68.5,183.5C 68.3893,182.883 68.056,182.383 67.5,182C 68.6853,180.647 70.0186,179.48 71.5,178.5C 69.771,177.403 68.1044,176.237 66.5,175C 67.9308,174.535 69.0975,173.701 70,172.5C 70.3345,175.19 71.5012,175.857 73.5,174.5C 74.252,176.1 75.252,177.6 76.5,179C 80.9818,178.937 85.1485,179.77 89,181.5C 89.6891,180.643 90.5224,179.977 91.5,179.5C 93.1592,181.587 94.8259,181.254 96.5,178.5C 98.8982,179.898 100.565,181.898 101.5,184.5C 102.496,178.537 102.829,172.537 102.5,166.5 Z"/></g>
<g><path style="opacity:1" fill="#1e4449" d="M 57.5,185.5 C 57.1959,183.204 56.1959,182.871 54.5,184.5C 53.9569,184.44 53.6236,184.107 53.5,183.5C 54.1667,182.833 54.8333,182.167 55.5,181.5C 54.7261,180.289 53.8928,180.289 53,181.5C 52.5172,180.552 52.3505,179.552 52.5,178.5C 52.4176,176.748 53.2509,175.748 55,175.5C 56.7215,175.611 56.8882,176.111 55.5,177C 57.4357,177.813 59.4357,178.313 61.5,178.5C 61.393,180.903 62.393,182.736 64.5,184C 63.5838,184.374 62.7504,184.874 62,185.5C 59.9288,182.584 58.5954,182.918 58,186.5C 57.6012,186.272 57.4346,185.938 57.5,185.5 Z"/></g>
<g><path style="opacity:1" fill="#bb1e27" d="M 57.5,185.5 C 56.5416,185.953 55.7083,186.619 55,187.5C 54.5357,186.906 54.369,186.239 54.5,185.5C 54.5,185.167 54.5,184.833 54.5,184.5C 56.1959,182.871 57.1959,183.204 57.5,185.5 Z"/></g>
<g><path style="opacity:1" fill="#453129" d="M 35.5,178.5 C 36.6751,179.974 37.6751,181.64 38.5,183.5C 39.1667,182.833 39.8333,182.167 40.5,181.5C 41.1424,184.797 42.3091,185.131 44,182.5C 44.4652,183.931 45.2986,185.097 46.5,186C 44.8333,186.333 43.1667,186.667 41.5,187C 42.2225,188.751 43.2225,190.251 44.5,191.5C 41.9179,191.025 39.9179,191.692 38.5,193.5C 37.5148,190.943 36.5148,188.276 35.5,185.5C 36.5294,183.197 36.5294,180.864 35.5,178.5 Z"/></g>
<g><path style="opacity:1" fill="#313235" d="M 140.5,185.5 C 149.533,185.394 158.533,185.894 167.5,187C 165.782,187.346 164.115,187.846 162.5,188.5C 161.914,188.291 161.414,187.957 161,187.5C 159.509,189.004 157.676,189.837 155.5,190C 156.328,190.915 157.328,191.581 158.5,192C 157.09,192.368 156.09,193.201 155.5,194.5C 159.159,194.625 162.826,194.958 166.5,195.5C 166.859,197.766 166.192,199.599 164.5,201C 165.167,201.333 165.833,201.667 166.5,202C 165.62,203.356 165.286,204.856 165.5,206.5C 174.508,207.47 188.841,207.637 208.5,207C 211.691,204.811 212.691,201.978 211.5,198.5C 212.089,195.36 212.756,192.36 213.5,189.5C 213.187,193.042 213.521,196.375 214.5,199.5C 214.5,201.5 214.5,203.5 214.5,205.5C 213.833,205.5 213.5,205.833 213.5,206.5C 212.118,207.801 210.452,208.634 208.5,209C 201.508,209.5 194.508,209.666 187.5,209.5C 169.651,208.81 151.651,207.976 133.5,207C 135.663,206.755 137.33,205.755 138.5,204C 137.833,203.333 137.167,202.667 136.5,202C 137.573,200.406 138.573,198.906 139.5,197.5C 138.998,196.284 138.665,195.117 138.5,194C 139.536,192.383 140.703,192.216 142,193.5C 142.779,191.094 141.946,189.427 139.5,188.5C 141.078,187.702 142.744,187.202 144.5,187C 142.942,186.79 141.609,186.29 140.5,185.5 Z"/></g>
<g><path style="opacity:1" fill="#191917" d="M 23.5,132.5 C 24.8816,133.801 26.5483,134.634 28.5,135C 24.9704,135.672 23.6371,137.838 24.5,141.5C 25.5,141.5 26.5,141.5 27.5,141.5C 27.5,140.167 27.5,138.833 27.5,137.5C 29.8817,136.454 32.2151,136.454 34.5,137.5C 34.8333,138.167 35.1667,138.833 35.5,139.5C 38.2333,144.098 39.5666,149.098 39.5,154.5C 39.3691,155.376 39.7025,156.043 40.5,156.5C 41.2575,155.189 42.2575,154.689 43.5,155C 42.6569,156.787 42.4902,158.62 43,160.5C 42.4387,161.022 41.772,161.355 41,161.5C 40.6192,160.518 39.7859,159.852 38.5,159.5C 36.9623,159.453 35.9623,160.12 35.5,161.5C 34.0652,162.913 33.0652,164.58 32.5,166.5C 32.1166,164.592 31.1166,163.092 29.5,162C 29.9574,161.586 30.2907,161.086 30.5,160.5C 29.1667,159.167 27.8333,159.167 26.5,160.5C 28.3491,165.543 30.0158,170.71 31.5,176C 31.1734,177.813 30.5067,179.48 29.5,181C 30.1476,182.44 30.4809,183.94 30.5,185.5C 31.675,185.281 32.675,185.614 33.5,186.5C 32.1667,187.167 30.8333,187.833 29.5,188.5C 31.637,189.868 33.9703,190.868 36.5,191.5C 33.2869,192.662 30.6202,194.662 28.5,197.5C 28.8333,197.833 29.1667,198.167 29.5,198.5C 33.4074,195.504 36.7407,195.837 39.5,199.5C 39.0296,200.693 38.0296,201.36 36.5,201.5C 26.8253,201.302 17.1586,200.969 7.5,200.5C 7.21478,198.712 7.54811,197.045 8.5,195.5C 9.91399,196.624 11.414,197.624 13,198.5C 13.3333,197.833 13.6667,197.167 14,196.5C 14.8333,197.5 15.6667,198.5 16.5,199.5C 17.086,199.291 17.586,198.957 18,198.5C 18.9202,195.204 20.0868,192.037 21.5,189C 20.307,186.308 18.307,184.474 15.5,183.5C 16.311,182.784 16.9777,181.95 17.5,181C 15.8466,178.589 16.5133,177.422 19.5,177.5C 19.1484,174.572 18.4817,171.738 17.5,169C 18.4491,168.383 19.2825,168.549 20,169.5C 20.7163,166.28 21.883,163.28 23.5,160.5C 20.3577,158.881 17.0244,157.881 13.5,157.5C 14.1379,159.799 15.1379,161.966 16.5,164C 14.2557,166.349 13.0891,165.849 13,162.5C 12.5065,164.134 12.3398,165.801 12.5,167.5C 10.0418,167.773 8.37511,166.773 7.5,164.5C 8.83333,163.167 10.1667,161.833 11.5,160.5C 10.6744,159.549 10.5078,158.549 11,157.5C 14.06,153.943 17.56,151.777 21.5,151C 20.3318,149.594 20.6652,148.428 22.5,147.5C 20.4867,142.424 19.4867,137.091 19.5,131.5C 20.9587,131.433 22.2921,131.766 23.5,132.5 Z"/></g>
<g><path style="opacity:1" fill="#29221d" d="M 32.5,166.5 C 32.1866,169.247 32.52,171.914 33.5,174.5C 35.2237,173.339 36.8904,173.505 38.5,175C 37.062,175.219 35.7287,175.719 34.5,176.5C 34.8627,177.183 35.1961,177.85 35.5,178.5C 36.5294,180.864 36.5294,183.197 35.5,185.5C 36.5148,188.276 37.5148,190.943 38.5,193.5C 39.5832,193.461 40.5832,193.127 41.5,192.5C 42.1667,194.167 42.8333,195.833 43.5,197.5C 44.1835,197.137 44.8501,196.804 45.5,196.5C 45.5,197.833 45.5,199.167 45.5,200.5C 46.0282,201.93 44.0282,201.597 39.5,199.5C 36.7407,195.837 33.4074,195.504 29.5,198.5C 29.1667,198.167 28.8333,197.833 28.5,197.5C 30.6202,194.662 33.2869,192.662 36.5,191.5C 33.9703,190.868 31.637,189.868 29.5,188.5C 30.8333,187.833 32.1667,187.167 33.5,186.5C 32.675,185.614 31.675,185.281 30.5,185.5C 30.4809,183.94 30.1476,182.44 29.5,181C 30.5067,179.48 31.1734,177.813 31.5,176C 30.0158,170.71 28.3491,165.543 26.5,160.5C 27.8333,159.167 29.1667,159.167 30.5,160.5C 30.2907,161.086 29.9574,161.586 29.5,162C 31.1166,163.092 32.1166,164.592 32.5,166.5 Z"/></g>
<g><path style="opacity:1" fill="#80382a" d="M 44.5,191.5 C 45.3382,191.842 45.6716,192.508 45.5,193.5C 45.5,194.5 45.5,195.5 45.5,196.5C 44.8501,196.804 44.1835,197.137 43.5,197.5C 42.8333,195.833 42.1667,194.167 41.5,192.5C 40.5832,193.127 39.5832,193.461 38.5,193.5C 39.9179,191.692 41.9179,191.025 44.5,191.5 Z"/></g>
<g><path style="opacity:1" fill="#1a2928" d="M 68.5,183.5 C 69.2891,183.783 69.9558,184.283 70.5,185C 69.8333,186.333 69.1667,187.667 68.5,189C 69.9278,190.916 70.9278,193.083 71.5,195.5C 74.4843,193.016 77.3176,190.35 80,187.5C 80.3333,187.833 80.6667,188.167 81,188.5C 80.2404,192.048 79.5738,195.715 79,199.5C 78.0197,198.019 76.853,196.685 75.5,195.5C 74.6143,196.325 74.281,197.325 74.5,198.5C 72.0733,198.477 69.74,197.977 67.5,197C 68.7691,194.861 68.7691,192.695 67.5,190.5C 65.8027,191.912 64.136,192.246 62.5,191.5C 62.5246,188.821 63.858,187.488 66.5,187.5C 66.1568,185.517 66.8235,184.183 68.5,183.5 Z"/></g>
<g><path style="opacity:0.853" fill="#0f0e0c" d="M 55.5,189.5 C 57.6188,189.468 58.9522,190.468 59.5,192.5C 60.2625,193.268 61.2625,193.768 62.5,194C 61.6634,195.011 61.33,196.178 61.5,197.5C 60.5,197.5 59.5,197.5 58.5,197.5C 58.2627,198.791 58.596,199.791 59.5,200.5C 63.1616,201.341 66.995,202.008 71,202.5C 73.0924,202.121 75.0924,201.454 77,200.5C 82.3183,202.346 87.1516,201.68 91.5,198.5C 92.8333,199.167 94.1667,199.833 95.5,200.5C 96.1684,198.074 96.5018,195.741 96.5,193.5C 99.2286,195.89 101.562,198.557 103.5,201.5C 103.5,202.5 103.5,203.5 103.5,204.5C 69.7602,204.826 36.0935,204.493 2.5,203.5C 4.29439,202.767 5.96106,201.767 7.5,200.5C 17.1586,200.969 26.8253,201.302 36.5,201.5C 38.0296,201.36 39.0296,200.693 39.5,199.5C 44.0282,201.597 46.0282,201.93 45.5,200.5C 45.5,199.167 45.5,197.833 45.5,196.5C 45.5,195.5 45.5,194.5 45.5,193.5C 46.9953,193.585 47.9953,192.919 48.5,191.5C 47.3554,190.109 47.3554,188.776 48.5,187.5C 50.5098,189.171 52.8431,189.838 55.5,189.5 Z"/></g>
<g><path style="opacity:1" fill="#977140" d="M 59.5,200.5 C 59.6395,198.663 60.3061,198.33 61.5,199.5C 61.0431,200.298 60.3764,200.631 59.5,200.5 Z"/></g>
<g><path style="opacity:0.234" fill="#010101" d="M 103.5,206.5 C 104.683,207.504 106.016,208.338 107.5,209C 134.196,210.58 160.862,210.746 187.5,209.5C 194.508,209.666 201.508,209.5 208.5,209C 210.452,208.634 212.118,207.801 213.5,206.5C 214.167,206.5 214.5,206.167 214.5,205.5C 220.305,206.276 221.639,209.109 218.5,214C 217.167,214.333 215.833,214.667 214.5,215C 176.833,215.667 139.167,215.667 101.5,215C 94.9262,211.792 94.9262,208.625 101.5,205.5C 102.183,205.863 102.85,206.196 103.5,206.5 Z"/></g>
</svg>
